<svg width="124" height="124" viewBox="0 0 124 124" fill="none" xmlns="http://www.w3.org/2000/svg">
<path d="M71.2808 105.187C85.7265 105.187 97.437 93.4765 97.437 79.0308C97.437 64.5851 85.7265 52.8745 71.2808 52.8745C56.8351 52.8745 45.1245 64.5851 45.1245 79.0308C45.1245 93.4765 56.8351 105.187 71.2808 105.187Z" fill="#82FFF0"/>
<path d="M70.5059 98.8129H70.2152L53.3784 96.236C53.1263 96.1982 52.8842 96.111 52.666 95.9794C52.4477 95.8479 52.2575 95.6745 52.1063 95.4693C51.9551 95.2642 51.8459 95.0312 51.7849 94.7837C51.7239 94.5363 51.7124 94.2792 51.7509 94.0273C51.8319 93.5218 52.1097 93.069 52.5235 92.7676C52.9374 92.4663 53.4537 92.341 53.9596 92.4192L69.8665 94.841L73.0052 91.896L50.9177 82.8673C49.1895 82.1473 47.3359 81.7766 45.4637 81.7766C43.5915 81.7766 41.7378 82.1473 40.0096 82.8673L10.4434 95.5192C10.2074 95.6302 9.95149 95.6924 9.69091 95.7021C9.43034 95.7118 9.17049 95.6689 8.92692 95.5758C8.68335 95.4827 8.46108 95.3414 8.27342 95.1603C8.08577 94.9793 7.93658 94.7622 7.83481 94.5221C7.73304 94.2821 7.68078 94.0239 7.68115 93.7632C7.68153 93.5024 7.73453 93.2444 7.83699 93.0046C7.93945 92.7649 8.08925 92.5482 8.27743 92.3677C8.46561 92.1872 8.68828 92.0466 8.93212 91.9542L38.479 79.3023C40.6801 78.3862 43.0408 77.9146 45.4249 77.9146C47.8091 77.9146 50.1697 78.3862 52.3709 79.3023L77.2484 89.4548C77.5513 89.5761 77.8188 89.772 78.0258 90.0242C78.2329 90.2765 78.3729 90.577 78.4328 90.8978C78.4927 91.2186 78.4706 91.5494 78.3686 91.8594C78.2665 92.1694 78.0878 92.4486 77.849 92.671L71.8427 98.3285C71.4746 98.6536 70.9968 98.8267 70.5059 98.8129Z" fill="#2C3842"/>
<path d="M18.7939 116.115C18.4765 116.115 18.1639 116.038 17.8835 115.889C17.6031 115.74 17.3635 115.525 17.1858 115.262C17.043 115.051 16.9432 114.814 16.8922 114.564C16.8412 114.314 16.84 114.057 16.8886 113.807C16.9372 113.557 17.0346 113.319 17.1754 113.106C17.3162 112.894 17.4975 112.711 17.7089 112.569L34.8945 100.944C35.1369 100.782 35.4126 100.678 35.7011 100.637C35.9896 100.597 36.2834 100.622 36.5608 100.711L68.762 111.019L111.213 88.447C110.314 87.4449 109.119 86.756 107.802 86.4806C106.484 86.2053 105.113 86.358 103.889 86.9164L81.1039 97.1852C80.6363 97.4061 80.1 97.4323 79.6132 97.2579C79.1263 97.0835 78.7286 96.7228 78.5076 96.2552C78.2867 95.7876 78.2605 95.2513 78.4349 94.7644C78.6093 94.2775 78.97 93.8799 79.4376 93.6589L102.223 83.3127C104.194 82.4086 106.404 82.1597 108.527 82.6025C110.65 83.0453 112.576 84.1565 114.022 85.7733L115.746 87.7108C115.942 87.9292 116.085 88.1892 116.166 88.4711C116.247 88.753 116.262 89.0495 116.211 89.3383C116.162 89.6274 116.047 89.9015 115.876 90.1398C115.704 90.3781 115.481 90.5744 115.223 90.7139L69.8664 114.855C69.6392 114.976 69.3902 115.05 69.1341 115.073C68.8779 115.096 68.6197 115.068 68.3745 114.991L36.2701 104.722L19.8789 115.785C19.5582 116.001 19.1803 116.115 18.7939 116.115Z" fill="#2C3842"/>
<path d="M69.0913 70.0212C64.1357 70.0251 59.2902 68.5591 55.1679 65.8087C51.0456 63.0583 47.8316 59.147 45.9326 54.5697C44.0335 49.9924 43.5346 44.9547 44.499 40.0939C45.4635 35.233 47.8479 30.7674 51.3507 27.2619C54.8535 23.7564 59.3173 21.3685 64.1774 20.4003C69.0375 19.4321 74.0756 19.9271 78.6544 21.8226C83.2331 23.7181 87.1468 26.9291 89.9004 31.0493C92.654 35.1694 94.1238 40.0137 94.1238 44.9694C94.1187 51.6086 91.4803 57.9747 86.7874 62.6712C82.0946 67.3677 75.7305 70.011 69.0913 70.0212ZM69.0913 23.8119C64.9012 23.808 60.8042 25.0473 57.3188 27.3727C53.8333 29.6982 51.116 33.0054 49.5107 36.8757C47.9055 40.7461 47.4845 45.0057 48.301 49.1154C49.1175 53.2251 51.1348 57.0002 54.0976 59.963C57.0604 62.9258 60.8355 64.9431 64.9453 65.7596C69.055 66.5761 73.3145 66.1551 77.1849 64.5499C81.0553 62.9447 84.3624 60.2274 86.6879 56.7419C89.0134 53.2564 90.2526 49.1594 90.2488 44.9694C90.2385 39.3612 88.0062 33.9856 84.0406 30.0201C80.075 26.0545 74.6995 23.8221 69.0913 23.8119Z" fill="#2C3842"/>
<path d="M69.0911 81.1234C61.9397 81.1273 54.9479 79.0101 48.9999 75.0398C43.0519 71.0695 38.415 65.4244 35.6756 58.8186C32.9362 52.2127 32.2175 44.9427 33.6103 37.9283C35.0031 30.9139 38.4449 24.4701 43.5003 19.412C48.5557 14.3538 54.9977 10.9086 62.0114 9.51204C69.025 8.11547 76.2953 8.8303 82.9027 11.5661C89.5101 14.3019 95.1576 18.9358 99.1311 24.8817C103.105 30.8276 105.225 37.8183 105.225 44.9697C105.215 54.5517 101.406 63.7387 94.6318 70.5161C87.8581 77.2934 78.6732 81.108 69.0911 81.1234ZM69.0911 12.7103C62.7053 12.7065 56.4619 14.5968 51.1507 18.1422C45.8395 21.6875 41.6993 26.7286 39.2538 32.6276C36.8083 38.5265 36.1674 45.0183 37.4123 51.2816C38.6571 57.5448 41.7318 63.2981 46.2472 67.8136C50.7626 72.329 56.5159 75.4036 62.7792 76.6485C69.0425 77.8934 75.5343 77.2525 81.4332 74.807C87.3322 72.3615 92.3732 68.2213 95.9186 62.9101C99.464 57.5989 101.354 51.3555 101.35 44.9697C101.34 36.4171 97.9382 28.2178 91.8906 22.1702C85.843 16.1226 77.6437 12.7206 69.0911 12.7103Z" fill="#2C3842"/>
<path d="M69.091 18.3677C68.6097 18.346 68.1538 18.1456 67.8122 17.8059C67.6291 17.6264 67.4835 17.4124 67.3837 17.1763C67.2839 16.9402 67.232 16.6866 67.231 16.4302C67.232 16.1739 67.2839 15.9203 67.3837 15.6842C67.4835 15.448 67.6291 15.2341 67.8122 15.0546C68.1752 14.6938 68.6663 14.4912 69.1781 14.4912C69.69 14.4912 70.1811 14.6938 70.5441 15.0546C70.7272 15.2341 70.8728 15.448 70.9726 15.6842C71.0723 15.9203 71.1243 16.1739 71.1253 16.4302C71.1243 16.6866 71.0723 16.9402 70.9726 17.1763C70.8728 17.4124 70.7272 17.6264 70.5441 17.8059L70.2535 18.0384C70.1026 18.1375 69.9295 18.1974 69.7497 18.2127C69.6332 18.2689 69.5092 18.308 69.3816 18.329C69.2867 18.3537 69.189 18.3667 69.091 18.3677Z" fill="#2C3842"/>
<path d="M89.2607 26.7183C88.7469 26.7183 88.2541 26.5142 87.8907 26.1508C87.5274 25.7875 87.3232 25.2947 87.3232 24.7808C87.3237 24.5211 87.3765 24.2641 87.4782 24.0252C87.5718 23.789 87.7175 23.5771 87.9045 23.4052C88.1282 23.1784 88.4043 23.0102 88.7084 22.9156C89.0126 22.821 89.3354 22.8028 89.6482 22.8627L89.997 22.9789L90.3457 23.1533L90.6364 23.4052C90.9972 23.7682 91.1998 24.2592 91.1998 24.7711C91.1998 25.283 90.9972 25.774 90.6364 26.137L90.3457 26.3889L89.997 26.5633L89.6482 26.6795L89.2607 26.7183Z" fill="#2C3842"/>
<path d="M97.6308 46.9068C97.3759 46.9083 97.1231 46.8594 96.887 46.763C96.651 46.6666 96.4363 46.5245 96.2552 46.3449C96.1662 46.2579 96.0881 46.1603 96.0227 46.0543C95.9463 45.945 95.8814 45.8282 95.829 45.7056C95.7877 45.592 95.7554 45.4754 95.7321 45.3568C95.713 45.2283 95.713 45.0978 95.7321 44.9693C95.729 44.7174 95.7751 44.4673 95.8677 44.2331C95.973 43.9976 96.1171 43.7815 96.294 43.5937C96.657 43.2328 97.148 43.0303 97.6599 43.0303C98.1718 43.0303 98.6628 43.2328 99.0258 43.5937C99.2074 43.7738 99.3516 43.9881 99.45 44.2242C99.5483 44.4603 99.599 44.7135 99.599 44.9693C99.599 45.2251 99.5483 45.4783 99.45 45.7144C99.3516 45.9505 99.2074 46.1648 99.0258 46.3449C98.8425 46.5268 98.6247 46.6703 98.3851 46.7667C98.1455 46.8632 97.8891 46.9109 97.6308 46.9068Z" fill="#2C3842"/>
<path d="M89.2607 67.0959C88.8781 67.094 88.5048 66.9789 88.1875 66.7651C87.8703 66.5513 87.6235 66.2484 87.4782 65.8946C87.3789 65.6617 87.3262 65.4116 87.3232 65.1584C87.3173 64.8678 87.3768 64.5796 87.4974 64.3151C87.6181 64.0507 87.7966 63.8168 88.0199 63.6307C88.2432 63.4446 88.5055 63.3112 88.7873 63.2402C89.0692 63.1693 89.3634 63.1627 89.6482 63.2209L89.9969 63.3177L90.3457 63.5115L90.6363 63.744C90.9123 64.0159 91.1004 64.3643 91.1764 64.7442C91.2524 65.1241 91.2127 65.5181 91.0625 65.8752C90.9502 66.1068 90.8068 66.3219 90.6363 66.5146L90.3457 66.7471L89.9969 66.9215L89.6482 67.0377L89.2607 67.0959Z" fill="#2C3842"/>
<path d="M69.0915 75.4464C68.8365 75.4478 68.5837 75.399 68.3477 75.3025C68.1116 75.2061 67.8969 75.0641 67.7159 74.8845C67.5242 74.7089 67.3779 74.4895 67.2896 74.2451C67.1554 73.8812 67.1335 73.4853 67.2268 73.1088C67.32 72.7323 67.5242 72.3924 67.8127 72.1332C68.1758 71.7724 68.6668 71.5698 69.1787 71.5698C69.6905 71.5698 70.1816 71.7724 70.5446 72.1332C70.7215 72.321 70.8656 72.5371 70.9709 72.7726C71.0734 73.0045 71.1263 73.2553 71.1263 73.5089C71.1263 73.7624 71.0734 74.0132 70.9709 74.2451C70.8729 74.4846 70.728 74.702 70.5446 74.8845C70.3545 75.0736 70.1272 75.2212 69.877 75.3179C69.6269 75.4146 69.3594 75.4584 69.0915 75.4464Z" fill="#2C3842"/>
<path d="M48.9025 67.0957C48.3886 67.0957 47.8958 66.8916 47.5325 66.5282C47.1691 66.1649 46.965 65.6721 46.965 65.1582C46.9619 64.9063 47.008 64.6562 47.1006 64.422C47.2035 64.1852 47.3479 63.9686 47.5269 63.7826C47.707 63.601 47.9213 63.4568 48.1574 63.3585C48.3935 63.2601 48.6467 63.2095 48.9025 63.2095C49.1583 63.2095 49.4115 63.2601 49.6476 63.3585C49.8837 63.4568 50.098 63.601 50.2781 63.7826C50.4575 63.9644 50.5962 64.1824 50.685 64.422C50.7843 64.6549 50.8369 64.905 50.84 65.1582C50.84 65.6721 50.6359 66.1649 50.2725 66.5282C49.9092 66.8916 49.4163 67.0957 48.9025 67.0957Z" fill="#2C3842"/>
<path d="M40.5518 46.9067C40.2968 46.9081 40.044 46.8593 39.808 46.7629C39.5719 46.6664 39.3572 46.5244 39.1762 46.3448C38.9966 46.1638 38.8545 45.9491 38.7581 45.713C38.6617 45.4769 38.6128 45.2242 38.6143 44.9692C38.6128 44.7142 38.6617 44.4614 38.7581 44.2254C38.8545 43.9893 38.9966 43.7746 39.1762 43.5936C39.4017 43.3702 39.6787 43.2056 39.9828 43.1144C40.2868 43.0232 40.6086 43.0081 40.9199 43.0704C41.0475 43.0914 41.1715 43.1306 41.288 43.1867C41.4071 43.2254 41.5185 43.2844 41.6174 43.361L41.908 43.5936C42.0911 43.773 42.2368 43.987 42.3365 44.2231C42.4363 44.4592 42.4882 44.7128 42.4893 44.9692C42.4882 45.2255 42.4363 45.4791 42.3365 45.7152C42.2368 45.9514 42.0911 46.1654 41.908 46.3448C41.8199 46.4327 41.7225 46.5106 41.6174 46.5773C41.5143 46.6526 41.4039 46.7175 41.288 46.7711L40.9199 46.8679C40.7999 46.8998 40.6758 46.9129 40.5518 46.9067Z" fill="#2C3842"/>
<path d="M48.9025 26.7376H48.515L48.1662 26.6214L47.8175 26.447L47.5269 26.1951C47.3523 26.0128 47.2084 25.8034 47.1006 25.5751C47.008 25.3409 46.9619 25.0908 46.965 24.8389C46.9635 24.5839 47.0124 24.3311 47.1088 24.0951C47.2052 23.859 47.3473 23.6443 47.5269 23.4632C47.707 23.2816 47.9213 23.1375 48.1574 23.0391C48.3935 22.9408 48.6467 22.8901 48.9025 22.8901C49.1583 22.8901 49.4115 22.9408 49.6476 23.0391C49.8837 23.1375 50.098 23.2816 50.2781 23.4632C50.4577 23.6443 50.5998 23.859 50.6962 24.0951C50.7926 24.3311 50.8415 24.5839 50.84 24.8389C50.8378 25.3472 50.6361 25.8342 50.2781 26.1951C49.9093 26.5507 49.4147 26.7458 48.9025 26.7376Z" fill="#2C3842"/>
</svg>
