<svg width="124" height="124" viewBox="0 0 124 124" fill="none" xmlns="http://www.w3.org/2000/svg">
<path d="M34.875 84.2812C49.3207 84.2812 61.0312 72.5707 61.0312 58.125C61.0312 43.6793 49.3207 31.9688 34.875 31.9688C20.4293 31.9688 8.71875 43.6793 8.71875 58.125C8.71875 72.5707 20.4293 84.2812 34.875 84.2812Z" fill="#FFCD01" fill-opacity="0.47"/>
<path d="M43.458 102.3H24.083C23.5692 102.3 23.0763 102.096 22.713 101.732C22.3496 101.369 22.1455 100.876 22.1455 100.362V65.4873C22.1455 64.9734 22.3496 64.4806 22.713 64.1173C23.0763 63.7539 23.5692 63.5498 24.083 63.5498H43.458C43.9719 63.5498 44.4647 63.7539 44.828 64.1173C45.1914 64.4806 45.3955 64.9734 45.3955 65.4873V100.362C45.3955 100.876 45.1914 101.369 44.828 101.732C44.4647 102.096 43.9719 102.3 43.458 102.3ZM26.0205 98.4248H41.5205V67.4248H26.0205V98.4248Z" fill="#2C3842"/>
<path d="M97.6885 102.3H78.3135C77.7996 102.3 77.3068 102.096 76.9435 101.732C76.5801 101.369 76.376 100.876 76.376 100.362V80.9873C76.376 80.4734 76.5801 79.9806 76.9435 79.6173C77.3068 79.2539 77.7996 79.0498 78.3135 79.0498H97.6885C98.2023 79.0498 98.6951 79.2539 99.0585 79.6173C99.4218 79.9806 99.626 80.4734 99.626 80.9873V100.362C99.626 100.876 99.4218 101.369 99.0585 101.732C98.6951 102.096 98.2023 102.3 97.6885 102.3ZM80.251 98.4248H95.751V82.9248H80.251V98.4248Z" fill="#2C3842"/>
<path d="M70.6025 102.3H51.2275C50.7137 102.3 50.2209 102.096 49.8575 101.732C49.4942 101.369 49.29 100.876 49.29 100.362V26.7373C49.29 26.2234 49.4942 25.7306 49.8575 25.3673C50.2209 25.0039 50.7137 24.7998 51.2275 24.7998H70.6025C71.1164 24.7998 71.6092 25.0039 71.9726 25.3673C72.3359 25.7306 72.54 26.2234 72.54 26.7373V41.2686C72.54 41.7824 72.3359 42.2752 71.9726 42.6386C71.6092 43.0019 71.1164 43.2061 70.6025 43.2061C70.0887 43.2061 69.5959 43.0019 69.2325 42.6386C68.8692 42.2752 68.665 41.7824 68.665 41.2686V28.6748H53.165V98.4248H68.665V61.2054C68.665 60.6916 68.8692 60.1988 69.2325 59.8354C69.5959 59.4721 70.0887 59.2679 70.6025 59.2679C71.1164 59.2679 71.6092 59.4721 71.9726 59.8354C72.3359 60.1988 72.54 60.6916 72.54 61.2054V100.362C72.54 100.876 72.3359 101.369 71.9726 101.732C71.6092 102.096 71.1164 102.3 70.6025 102.3Z" fill="#2C3842"/>
<path d="M88.0012 73.2186C83.6511 73.2224 79.3975 71.9359 75.7786 69.5219C72.1597 67.1079 69.3381 63.6747 67.6707 59.6568C66.0033 55.6389 65.5651 51.2167 66.4114 46.9497C67.2577 42.6826 69.3506 38.7625 72.4253 35.6851C75.4999 32.6077 79.4183 30.5114 83.6846 29.6613C87.9508 28.8112 92.3734 29.2455 96.3928 30.9094C100.412 32.5732 103.848 35.3918 106.265 39.0086C108.682 42.6253 109.972 46.8778 109.972 51.2279C109.967 57.0553 107.651 62.6428 103.533 66.7651C99.414 70.8875 93.8286 73.2083 88.0012 73.2186ZM88.0012 33.1317C84.4166 33.1278 80.9115 34.1875 77.9294 36.1766C74.9474 38.1657 72.6224 40.9948 71.2489 44.3058C69.8754 47.6168 69.515 51.2608 70.2134 54.7767C70.9118 58.2926 72.6375 61.5223 75.1722 64.057C77.7069 66.5917 80.9365 68.3174 84.4524 69.0158C87.9683 69.7142 91.6124 69.3538 94.9233 67.9802C98.2343 66.6067 101.063 64.2818 103.053 61.2997C105.042 58.3177 106.101 54.8125 106.097 51.2279C106.092 46.4301 104.184 41.8302 100.792 38.4376C97.3989 35.045 92.7991 33.1368 88.0012 33.1317Z" fill="#2C3842"/>
<path d="M84.174 46.1818V56H81.9496L78.402 50.8416H78.3444V56H75.679V46.1818H77.9417L81.4318 51.321H81.5085V46.1818H84.174ZM85.4348 56V46.1818H92.3382V48.3295H88.1003V50.017H91.9163V52.1648H88.1003V56H85.4348ZM93.0501 48.3295V46.1818H101.584V48.3295H98.6304V56H96.0033V48.3295H93.0501Z" fill="#2C3842"/>
</svg>
