<svg width="124" height="124" viewBox="0 0 124 124" fill="none" xmlns="http://www.w3.org/2000/svg">
<path d="M32.1562 54.3125C46.6019 54.3125 58.3125 42.6019 58.3125 28.1562C58.3125 13.7106 46.6019 2 32.1562 2C17.7106 2 6 13.7106 6 28.1562C6 42.6019 17.7106 54.3125 32.1562 54.3125Z" fill="#FFE888"/>
<path d="M62.1935 96.2936C55.41 96.2974 48.7778 94.2894 43.1356 90.5235C37.4935 86.7575 33.095 81.4029 30.4964 75.1369C27.8978 68.8709 27.2159 61.9749 28.537 55.3213C29.858 48.6677 33.1226 42.5553 37.9179 37.7573C42.7132 32.9593 48.8238 29.6912 55.4766 28.3664C62.1295 27.0416 69.0258 27.7196 75.2933 30.3147C81.5608 32.9097 86.9179 37.3052 90.687 42.9452C94.4561 48.5852 96.4679 55.2163 96.4679 61.9998C96.4576 71.0886 92.8439 79.8025 86.419 86.231C79.9941 92.6596 71.2823 96.2782 62.1935 96.2936ZM62.1935 31.5811C56.1764 31.5772 50.2934 33.358 45.2885 36.6981C40.2836 40.0383 36.3817 44.7877 34.0764 50.3456C31.7711 55.9036 31.166 62.0204 32.3375 67.9223C33.509 73.8243 36.4046 79.2462 40.658 83.5023C44.9113 87.7583 50.3314 90.6574 56.2326 91.8327C62.1338 93.0079 68.251 92.4067 73.8104 90.1049C79.3698 87.8032 84.1217 83.9043 87.465 78.9016C90.8084 73.8988 92.5929 68.0169 92.5929 61.9998C92.5878 53.9372 89.3839 46.206 83.6846 40.503C77.9853 34.8001 70.2561 31.5913 62.1935 31.5811Z" fill="#2C3842"/>
<path d="M62.1937 111.832C52.3369 111.836 42.7004 108.917 34.503 103.444C26.3055 97.9703 19.9153 90.1889 16.1407 81.0835C12.366 71.9781 11.3764 61.9579 13.297 52.29C15.2176 42.6222 19.9621 33.7411 26.9306 26.77C33.899 19.7988 42.7783 15.0508 52.4454 13.1264C62.1124 11.2021 72.1331 12.1878 81.2399 15.9589C90.3467 19.7301 98.1307 26.1172 103.607 34.3125C109.084 42.5079 112.007 52.1432 112.007 62C111.991 75.2083 106.739 87.8715 97.4011 97.2131C88.0632 106.555 75.402 111.812 62.1937 111.832ZM62.1937 16.0425C53.1033 16.0387 44.216 18.7308 36.6558 23.7783C29.0956 28.8259 23.2021 36.0021 19.7207 44.3994C16.2393 52.7967 15.3264 62.0378 17.0975 70.954C18.8686 79.8701 23.2441 88.0608 29.6706 94.49C36.0971 100.919 44.2859 105.298 53.2013 107.073C62.1167 108.848 71.3582 107.939 79.757 104.461C88.1558 100.983 95.3345 95.0927 100.385 87.5346C105.436 79.9765 108.132 71.0904 108.132 62C108.116 49.8194 103.272 38.1418 94.661 29.527C86.0499 20.9121 74.3743 16.063 62.1937 16.0425Z" fill="#2C3842"/>
<path d="M62.1938 23.9864C61.9374 23.9853 61.6838 23.9334 61.4477 23.8336C61.2116 23.7339 60.9976 23.5882 60.8181 23.4051C60.6369 23.2283 60.4921 23.0177 60.3919 22.7852C60.2459 22.4305 60.2085 22.0405 60.2844 21.6645C60.3603 21.2885 60.546 20.9436 60.8181 20.6733C61.1811 20.3124 61.6722 20.1099 62.1841 20.1099C62.6959 20.1099 63.187 20.3124 63.55 20.6733C63.7331 20.8527 63.8787 21.0667 63.9785 21.3028C64.0783 21.539 64.1302 21.7926 64.1313 22.0489C64.1282 22.3021 64.0755 22.5522 63.9763 22.7852C63.7681 23.2507 63.3956 23.6232 62.93 23.8314C62.6971 23.9307 62.4469 23.9833 62.1938 23.9864Z" fill="#2C3842"/>
<path d="M90.4424 35.689C90.186 35.6879 89.9324 35.636 89.6963 35.5362C89.4602 35.4364 89.2462 35.2908 89.0668 35.1077C88.7088 34.7468 88.507 34.2598 88.5049 33.7515C88.5097 33.4922 88.5623 33.2361 88.6599 32.9958C88.7543 32.7649 88.8925 32.5544 89.0668 32.3758C89.2469 32.1942 89.4612 32.0501 89.6973 31.9517C89.9334 31.8534 90.1866 31.8027 90.4424 31.8027C90.6982 31.8027 90.9514 31.8534 91.1875 31.9517C91.4236 32.0501 91.6379 32.1942 91.818 32.3758C91.9923 32.5544 92.1304 32.7649 92.2249 32.9958C92.3225 33.2361 92.375 33.4922 92.3799 33.7515C92.3777 34.2598 92.1759 34.7468 91.818 35.1077C91.6386 35.2908 91.4246 35.4364 91.1885 35.5362C90.9523 35.636 90.6987 35.6879 90.4424 35.689Z" fill="#2C3842"/>
<path d="M102.145 63.9375C101.892 63.9344 101.642 63.8817 101.409 63.7825C101.168 63.6954 100.95 63.5566 100.769 63.3758C100.588 63.195 100.45 62.9767 100.363 62.7362C100.263 62.5033 100.211 62.2532 100.208 62C100.215 61.487 100.415 60.9956 100.769 60.6243L101.06 60.3918C101.168 60.3185 101.285 60.2599 101.409 60.2175L101.758 60.1012C102.013 60.0431 102.277 60.0431 102.533 60.1012L102.881 60.2175C103 60.2562 103.112 60.3152 103.211 60.3918L103.521 60.6243C103.7 60.8054 103.842 61.0201 103.939 61.2561C104.035 61.4922 104.084 61.745 104.083 62C104.083 62.5138 103.878 63.0066 103.515 63.37C103.152 63.7333 102.659 63.9375 102.145 63.9375Z" fill="#2C3842"/>
<path d="M90.4427 92.1862C90.0618 92.1846 89.6899 92.0708 89.3733 91.859C89.0567 91.6472 88.8096 91.3468 88.6628 90.9954C88.5161 90.6439 88.4761 90.257 88.548 89.883C88.6199 89.509 88.8004 89.1644 89.0671 88.8924C89.2472 88.7108 89.4614 88.5667 89.6976 88.4683C89.9337 88.37 90.1869 88.3193 90.4427 88.3193C90.6984 88.3193 90.9517 88.37 91.1878 88.4683C91.4239 88.5667 91.6382 88.7108 91.8183 88.8924C92.1762 89.2533 92.378 89.7404 92.3802 90.2487C92.3802 90.7626 92.176 91.2554 91.8127 91.6187C91.4493 91.9821 90.9565 92.1862 90.4427 92.1862Z" fill="#2C3842"/>
<path d="M62.1938 103.889C61.9388 103.89 61.6861 103.841 61.45 103.745C61.2139 103.649 60.9992 103.507 60.8182 103.327C60.637 103.15 60.4922 102.94 60.3919 102.707C60.2968 102.467 60.2507 102.21 60.2563 101.951C60.2585 101.443 60.4603 100.956 60.8182 100.595C61.1812 100.234 61.6723 100.032 62.1841 100.032C62.696 100.032 63.1871 100.234 63.5501 100.595C63.9151 100.953 64.124 101.44 64.1313 101.951C64.1161 102.207 64.0502 102.457 63.9376 102.688C63.8374 102.92 63.6926 103.131 63.5113 103.308C63.3345 103.489 63.1239 103.634 62.8913 103.734C62.6704 103.828 62.4339 103.881 62.1938 103.889Z" fill="#2C3842"/>
<path d="M33.9452 92.1865C33.6902 92.188 33.4374 92.1391 33.2013 92.0427C32.9653 91.9463 32.7506 91.8042 32.5695 91.6246C32.3883 91.4478 32.2435 91.2371 32.1433 91.0046C32.0415 90.7657 31.9888 90.5087 31.9883 90.249C31.9913 89.9958 32.044 89.7457 32.1433 89.5127C32.2368 89.2766 32.3825 89.0647 32.5695 88.8927C32.6527 88.7942 32.7508 88.7092 32.8602 88.6409C32.9635 88.5713 33.0739 88.5128 33.1895 88.4665C33.3061 88.4104 33.43 88.3712 33.5577 88.3502C33.8081 88.3116 34.0629 88.3116 34.3133 88.3502C34.4409 88.3712 34.5649 88.4104 34.6814 88.4665C34.797 88.5128 34.9075 88.5713 35.0108 88.6409C35.1164 88.7142 35.2138 88.7987 35.3014 88.8927C35.4826 89.0696 35.6275 89.2802 35.7277 89.5127C35.8269 89.7457 35.8796 89.9958 35.8827 90.249C35.8822 90.5087 35.8294 90.7657 35.7277 91.0046C35.6221 91.2341 35.4779 91.4438 35.3014 91.6246C34.9405 91.9826 34.4534 92.1844 33.9452 92.1865Z" fill="#2C3842"/>
<path d="M22.2233 63.9376C21.9059 63.936 21.5938 63.8565 21.3144 63.7061C21.035 63.5556 20.7968 63.3389 20.6208 63.0748C20.4448 62.8108 20.3363 62.5076 20.3049 62.1918C20.2735 61.876 20.3202 61.5574 20.4408 61.2638C20.5414 61.0258 20.686 60.8089 20.867 60.6244C21.23 60.2636 21.7211 60.061 22.2329 60.061C22.7448 60.061 23.2359 60.2636 23.5989 60.6244C23.7799 60.8089 23.9245 61.0258 24.0251 61.2638C24.2053 61.7381 24.2053 62.262 24.0251 62.7363C23.9272 62.9758 23.7822 63.1932 23.5989 63.3757C23.4203 63.55 23.2098 63.6881 22.9789 63.7826C22.7399 63.8844 22.483 63.9371 22.2233 63.9376Z" fill="#2C3842"/>
<path d="M33.9451 35.6887C33.6853 35.6882 33.4284 35.6355 33.1894 35.5337C32.7239 35.3256 32.3514 34.9531 32.1432 34.4875C32.0104 34.1635 31.968 33.8095 32.0203 33.4633C32.0726 33.1171 32.2178 32.7915 32.4404 32.5212C32.663 32.251 32.9547 32.046 33.2845 31.9283C33.6142 31.8105 33.9697 31.7843 34.3132 31.8525H34.6813C34.7972 31.9061 34.9075 31.971 35.0107 32.0462C35.12 32.1067 35.2183 32.1854 35.3013 32.2787C35.5734 32.549 35.7592 32.894 35.835 33.27C35.9109 33.6459 35.8735 34.0359 35.7276 34.3906C35.6274 34.6232 35.4825 34.8338 35.3013 35.0106C35.1324 35.209 34.9253 35.3714 34.6923 35.4879C34.4592 35.6044 34.2051 35.6727 33.9451 35.6887Z" fill="#2C3842"/>
<path d="M62 77.0544C59.9749 77.2195 57.9514 76.7182 56.2375 75.6269C54.5237 74.5356 53.2134 72.9142 52.5063 71.0094C52.4317 70.7652 52.4062 70.5086 52.4312 70.2544C52.4561 70.0003 52.5311 69.7536 52.6517 69.5285C52.7723 69.3035 52.9363 69.1045 53.1341 68.943C53.3319 68.7815 53.5597 68.6607 53.8044 68.5875C54.0499 68.5134 54.3077 68.4887 54.5628 68.5149C54.8179 68.5411 55.0653 68.6177 55.2906 68.7403C55.5159 68.8628 55.7146 69.0289 55.8752 69.2288C56.0358 69.4288 56.1551 69.6586 56.2263 69.905C56.3231 70.215 57.4275 73.1794 62.0388 73.1794C65.565 73.1794 67.735 71.0869 67.735 69.1494C67.735 67.2119 67.27 64.8675 61.5931 63.4919C55.9163 62.1163 53.2038 59.3844 53.2038 55.2575C53.2038 51.1307 55.6256 46.9457 62.3875 46.9457C63.9402 46.881 65.4849 47.201 66.8842 47.877C68.2836 48.553 69.4943 49.5642 70.4088 50.8207C70.7017 51.2446 70.8142 51.7675 70.7215 52.2744C70.6288 52.7813 70.3386 53.2306 69.9147 53.5235C69.4908 53.8164 68.9678 53.9289 68.461 53.8362C67.9541 53.7436 67.5048 53.4533 67.2119 53.0294C66.6613 52.2809 65.9301 51.684 65.0865 51.2944C64.2429 50.9047 63.3144 50.7351 62.3875 50.8013C58.8613 50.8013 57.0788 52.2932 57.0788 55.2382C57.0788 56.265 57.0788 58.3963 62.4844 59.6944C68.8006 61.225 71.61 64.1313 71.61 69.13C71.5713 73.0438 67.9869 77.0544 62 77.0544Z" fill="#2C3842"/>
<path d="M62.3486 50.8206C61.8348 50.8206 61.342 50.6164 60.9786 50.2531C60.6153 49.8897 60.4111 49.3969 60.4111 48.8831V45.7056C60.4111 45.1917 60.6153 44.6989 60.9786 44.3355C61.342 43.9722 61.8348 43.7681 62.3486 43.7681C62.8625 43.7681 63.3553 43.9722 63.7187 44.3355C64.082 44.6989 64.2861 45.1917 64.2861 45.7056V48.8831C64.2861 49.3969 64.082 49.8897 63.7187 50.2531C63.3553 50.6164 62.8625 50.8206 62.3486 50.8206Z" fill="#2C3842"/>
<path d="M62.3486 80.2317C61.8348 80.2317 61.342 80.0276 60.9786 79.6642C60.6153 79.3009 60.4111 78.808 60.4111 78.2942V75.1167C60.4111 74.6028 60.6153 74.11 60.9786 73.7467C61.342 73.3833 61.8348 73.1792 62.3486 73.1792C62.8625 73.1792 63.3553 73.3833 63.7187 73.7467C64.082 74.11 64.2861 74.6028 64.2861 75.1167V78.2942C64.2861 78.808 64.082 79.3009 63.7187 79.6642C63.3553 80.0276 62.8625 80.2317 62.3486 80.2317Z" fill="#2C3842"/>
<path d="M83.2603 85.1668H81.8333C80.6509 85.1668 79.5169 85.6365 78.6808 86.4726C77.8447 87.3087 77.375 88.4427 77.375 89.6252V113.125C77.375 114.308 77.8447 115.442 78.6808 116.278C79.5169 117.114 80.6509 117.583 81.8333 117.583H113.167C114.349 117.583 115.483 117.114 116.319 116.278C117.155 115.442 117.625 114.308 117.625 113.125V89.6252C117.625 88.4427 117.155 87.3087 116.319 86.4727C115.483 85.6365 114.349 85.1668 113.167 85.1668H111.74C111.604 81.5843 110.121 78.1767 107.576 75.6322C104.904 72.9598 101.279 71.4585 97.5 71.4585C93.7207 71.4585 90.0961 72.9598 87.4237 75.6322C84.8793 78.1767 83.3964 81.5843 83.2603 85.1668ZM108.708 108.667H101.958V107.25V104.032C102.587 103.424 103.089 102.69 103.428 101.872C103.969 100.567 104.064 99.1204 103.698 97.756C103.332 96.3916 102.527 95.1859 101.406 94.326C101.296 94.2414 101.183 94.1605 101.068 94.0835H108.708V108.667ZM86.2917 108.667V94.0835H93.932C93.817 94.1605 93.7042 94.2414 93.5938 94.326C92.4731 95.1859 91.6676 96.3916 91.302 97.756C90.9364 99.1204 91.0312 100.567 91.5718 101.872C91.9106 102.69 92.4128 103.424 93.0417 104.032V107.25V108.667H86.2917ZM102.806 85.1668H92.1942C92.3183 83.9513 92.8571 82.809 93.7288 81.9373C94.729 80.9371 96.0855 80.3752 97.5 80.3752C98.9145 80.3752 100.271 80.9371 101.271 81.9373C102.143 82.809 102.682 83.9513 102.806 85.1668Z" fill="#2C3842" stroke="white" stroke-width="5"/>
</svg>
