<svg width="124" height="124" viewBox="0 0 124 124" fill="none" xmlns="http://www.w3.org/2000/svg">
<path d="M38.75 66.8438C53.1957 66.8438 64.9062 55.1332 64.9062 40.6875C64.9062 26.2418 53.1957 14.5312 38.75 14.5312C24.3043 14.5312 12.5938 26.2418 12.5938 40.6875C12.5938 55.1332 24.3043 66.8438 38.75 66.8438Z" fill="#F5D4C1"/>
<path d="M68.7812 89.8417H55.2188C54.7049 89.8417 54.2121 89.6376 53.8487 89.2743C53.4854 88.9109 53.2812 88.4181 53.2812 87.9042V49.813C53.2812 49.2991 53.4854 48.8063 53.8487 48.443C54.2121 48.0796 54.7049 47.8755 55.2188 47.8755H68.7812C69.2951 47.8755 69.7879 48.0796 70.1513 48.443C70.5146 48.8063 70.7188 49.2991 70.7188 49.813V87.9042C70.7188 88.4181 70.5146 88.9109 70.1513 89.2743C69.7879 89.6376 69.2951 89.8417 68.7812 89.8417ZM57.1562 85.9667H66.8438V51.7505H57.1562V85.9667Z" fill="#2C3842"/>
<path d="M94.085 89.8417H80.5225C80.0086 89.8417 79.5158 89.6376 79.1524 89.2743C78.7891 88.9109 78.585 88.4181 78.585 87.9042V49.813C78.585 49.2991 78.7891 48.8063 79.1524 48.443C79.5158 48.0796 80.0086 47.8755 80.5225 47.8755H94.085C94.5988 47.8755 95.0916 48.0796 95.455 48.443C95.8183 48.8063 96.0225 49.2991 96.0225 49.813V87.9042C96.0225 88.4181 95.8183 88.9109 95.455 89.2743C95.0916 89.6376 94.5988 89.8417 94.085 89.8417ZM82.46 85.9667H92.1475V51.7505H82.46V85.9667Z" fill="#2C3842"/>
<path d="M43.4775 89.8417H29.915C29.4012 89.8417 28.9084 89.6376 28.545 89.2743C28.1817 88.9109 27.9775 88.4181 27.9775 87.9042V49.813C27.9775 49.2991 28.1817 48.8063 28.545 48.443C28.9084 48.0796 29.4012 47.8755 29.915 47.8755H43.4775C43.9914 47.8755 44.4842 48.0796 44.8476 48.443C45.2109 48.8063 45.415 49.2991 45.415 49.813V87.9042C45.415 88.4181 45.2109 88.9109 44.8476 89.2743C44.4842 89.6376 43.9914 89.8417 43.4775 89.8417ZM31.8525 85.9667H41.54V51.7505H31.8525V85.9667Z" fill="#2C3842"/>
<path d="M98.3089 99.878H25.6914C25.1775 99.878 24.6847 99.6739 24.3214 99.3106C23.958 98.9472 23.7539 98.4544 23.7539 97.9405V87.9043C23.7539 87.3904 23.958 86.8976 24.3214 86.5343C24.6847 86.1709 25.1775 85.9668 25.6914 85.9668H98.3089C98.8228 85.9668 99.3156 86.1709 99.6789 86.5343C100.042 86.8976 100.246 87.3904 100.246 87.9043V97.9405C100.246 98.4544 100.042 98.9472 99.6789 99.3106C99.3156 99.6739 98.8228 99.878 98.3089 99.878ZM27.6289 96.003H96.3714V89.8418H27.6289V96.003Z" fill="#2C3842"/>
<path d="M104.121 109.895H19.8789C19.365 109.895 18.8722 109.691 18.5089 109.327C18.1455 108.964 17.9414 108.471 17.9414 107.957V97.9404C17.9414 97.4266 18.1455 96.9338 18.5089 96.5704C18.8722 96.2071 19.365 96.0029 19.8789 96.0029H104.121C104.635 96.0029 105.128 96.2071 105.491 96.5704C105.855 96.9338 106.059 97.4266 106.059 97.9404V107.957C106.059 108.471 105.855 108.964 105.491 109.327C105.128 109.691 104.635 109.895 104.121 109.895ZM21.8164 106.02H102.184V99.8779H21.8164V106.02Z" fill="#2C3842"/>
<path d="M101.913 51.46H22.0877C21.6652 51.482 21.2471 51.3652 20.8972 51.1273C20.5474 50.8894 20.285 50.5435 20.1502 50.1425C20.0202 49.7555 20.0157 49.3373 20.1375 48.9476C20.2593 48.5579 20.5011 48.2166 20.8283 47.9725L60.8377 18.3675C61.1731 18.1159 61.581 17.98 62.0002 17.98C62.4194 17.98 62.8273 18.1159 63.1627 18.3675L103.075 47.9725C103.402 48.2166 103.644 48.5579 103.766 48.9476C103.888 49.3373 103.883 49.7555 103.753 50.1425C103.623 50.5273 103.376 50.8616 103.045 51.098C102.715 51.3344 102.319 51.461 101.913 51.46ZM27.9389 47.585H96.0614L62.0002 22.32L27.9389 47.585Z" fill="#2C3842"/>
<path d="M72.4626 51.4601C71.9487 51.4601 71.4559 51.2559 71.0926 50.8926C70.7292 50.5292 70.5251 50.0364 70.5251 49.5226C70.5251 47.2616 69.6269 45.0932 68.0282 43.4945C66.4294 41.8957 64.2611 40.9976 62.0001 40.9976C59.7391 40.9976 57.5708 41.8957 55.972 43.4945C54.3733 45.0932 53.4751 47.2616 53.4751 49.5226C53.4751 50.0364 53.271 50.5292 52.9076 50.8926C52.5443 51.2559 52.0515 51.4601 51.5376 51.4601C51.0237 51.4601 50.5309 51.2559 50.1676 50.8926C49.8042 50.5292 49.6001 50.0364 49.6001 49.5226C49.6001 46.2339 50.9065 43.0799 53.232 40.7544C55.5574 38.429 58.7114 37.1226 62.0001 37.1226C65.2888 37.1226 68.4428 38.429 70.7682 40.7544C73.0937 43.0799 74.4001 46.2339 74.4001 49.5226C74.4001 50.0364 74.196 50.5292 73.8326 50.8926C73.4693 51.2559 72.9765 51.4601 72.4626 51.4601Z" fill="#2C3842"/>
</svg>
