<svg width="124" height="124" viewBox="0 0 124 124" fill="none" xmlns="http://www.w3.org/2000/svg">
<path d="M62 88.1562C76.4457 88.1562 88.1562 76.4457 88.1562 62C88.1562 47.5543 76.4457 35.8438 62 35.8438C47.5543 35.8438 35.8438 47.5543 35.8438 62C35.8438 76.4457 47.5543 88.1562 62 88.1562Z" fill="#303846" fill-opacity="0.15"/>
<path d="M87.1872 59.3455C82.8363 59.3493 78.5819 58.0624 74.9626 55.6475C71.3433 53.2326 68.5217 49.7983 66.8549 45.7793C65.1881 41.7602 64.751 37.3371 65.5989 33.0695C66.4468 28.8019 68.5416 24.8818 71.6182 21.8052C74.6948 18.7286 78.6149 16.6338 82.8825 15.7859C87.15 14.938 91.5732 15.3751 95.5923 17.0419C99.6113 18.7087 103.046 21.5303 105.46 25.1496C107.875 28.7689 109.162 33.0233 109.158 37.3743C109.148 43.1983 106.83 48.7808 102.712 52.899C98.5938 57.0172 93.0112 59.3353 87.1872 59.3455ZM87.1872 19.2586C83.6035 19.2548 80.0991 20.314 77.1175 22.3022C74.1358 24.2905 71.8109 27.1184 70.4368 30.4283C69.0627 33.7381 68.7012 37.3812 69.398 40.8965C70.0948 44.4119 71.8186 47.6416 74.3513 50.1771C76.8841 52.7125 80.1119 54.4398 83.6266 55.1404C87.1412 55.8409 90.7846 55.4833 94.0959 54.1128C97.4073 52.7422 100.238 50.4203 102.229 47.4408C104.221 44.4613 105.283 40.958 105.283 37.3743C105.284 32.5731 103.378 27.9682 99.9844 24.5714C96.5913 21.1746 91.9885 19.2638 87.1872 19.2586Z" fill="#2C3842"/>
<path d="M99.7034 108.616H75.0003C74.6303 108.617 74.272 108.488 73.9884 108.25C73.7048 108.013 73.5142 107.683 73.4503 107.318L68.684 82.4214C68.6395 82.191 68.6459 81.9537 68.7028 81.7261C68.7597 81.4985 68.8657 81.2862 69.0134 81.1039C69.1689 80.9282 69.3597 80.7873 69.5734 80.6905C69.7871 80.5937 70.0188 80.5431 70.2534 80.542H104.47C104.701 80.5446 104.93 80.596 105.14 80.6928C105.35 80.7896 105.538 80.9297 105.69 81.1039C105.838 81.2862 105.944 81.4985 106.001 81.7261C106.058 81.9537 106.064 82.191 106.02 82.4214L101.253 107.318C101.189 107.683 100.999 108.013 100.715 108.25C100.432 108.488 100.073 108.617 99.7034 108.616ZM76.3178 105.439H98.3859L102.532 83.7195H72.1715L76.3178 105.439Z" fill="#2C3842"/>
<path d="M101.99 90.578H72.7146C72.4926 90.6026 72.2678 90.5801 72.055 90.512C71.8422 90.4439 71.6462 90.3317 71.4798 90.1826C71.3133 90.0336 71.1801 89.8512 71.089 89.6472C70.9978 89.4432 70.9507 89.2223 70.9507 88.9989C70.9507 88.7755 70.9978 88.5546 71.089 88.3506C71.1801 88.1466 71.3133 87.9642 71.4798 87.8152C71.6462 87.6662 71.8422 87.5539 72.055 87.4858C72.2678 87.4177 72.4926 87.3952 72.7146 87.4198H101.99C102.212 87.3952 102.437 87.4177 102.65 87.4858C102.863 87.5539 103.059 87.6662 103.225 87.8152C103.392 87.9642 103.525 88.1466 103.616 88.3506C103.707 88.5546 103.754 88.7755 103.754 88.9989C103.754 89.2223 103.707 89.4432 103.616 89.6472C103.525 89.8512 103.392 90.0336 103.225 90.1826C103.059 90.3317 102.863 90.4439 102.65 90.512C102.437 90.5801 102.212 90.6026 101.99 90.578Z" fill="#2C3842"/>
<path d="M87.1875 83.3125C86.6736 83.3125 86.1808 83.1084 85.8175 82.745C85.4541 82.3817 85.25 81.8889 85.25 81.375V60.9731C85.25 60.4593 85.4541 59.9665 85.8175 59.6031C86.1808 59.2398 86.6736 59.0356 87.1875 59.0356C87.7014 59.0356 88.1942 59.2398 88.5575 59.6031C88.9209 59.9665 89.125 60.4593 89.125 60.9731V81.375C89.125 81.8889 88.9209 82.3817 88.5575 82.745C88.1942 83.1084 87.7014 83.3125 87.1875 83.3125Z" fill="#2C3842"/>
<path d="M75.2334 73.3149H65.5459V69.4399C65.5459 65.8429 66.9748 62.3933 69.5183 59.8498C72.0617 57.3063 75.5114 55.8774 79.1084 55.8774H88.7959V59.7524C88.7959 63.3494 87.367 66.7991 84.8235 69.3426C82.2801 71.886 78.8304 73.3149 75.2334 73.3149ZM69.4209 69.4399H75.2334C77.8027 69.4399 80.2667 68.4193 82.0835 66.6025C83.9003 64.7858 84.9209 62.3217 84.9209 59.7524H79.1084C76.5391 59.7524 74.0751 60.7731 72.2583 62.5898C70.4415 64.4066 69.4209 66.8707 69.4209 69.4399Z" fill="#2C3842"/>
<path d="M108.829 73.3149H99.1416C95.5446 73.3149 92.0949 71.886 89.5515 69.3426C87.008 66.7991 85.5791 63.3494 85.5791 59.7524V55.8774H95.2666C98.8636 55.8774 102.313 57.3063 104.857 59.8498C107.4 62.3933 108.829 65.8429 108.829 69.4399V73.3149ZM89.4541 59.7524C89.4541 62.3217 90.4747 64.7858 92.2915 66.6025C94.1083 68.4193 96.5723 69.4399 99.1416 69.4399H104.954C104.954 66.8707 103.933 64.4066 102.117 62.5898C100.3 60.7731 97.8359 59.7524 95.2666 59.7524H89.4541Z" fill="#2C3842"/>
<path d="M36.8122 59.3455C32.4613 59.3493 28.2069 58.0624 24.5876 55.6475C20.9683 53.2326 18.1467 49.7983 16.4799 45.7793C14.8131 41.7602 14.376 37.3371 15.2239 33.0695C16.0718 28.8019 18.1666 24.8818 21.2432 21.8052C24.3198 18.7286 28.2399 16.6338 32.5075 15.7859C36.775 14.938 41.1982 15.3751 45.2173 17.0419C49.2363 18.7087 52.6706 21.5303 55.0855 25.1496C57.5004 28.7689 58.7873 33.0233 58.7835 37.3743C58.7733 43.1983 56.4551 48.7808 52.337 52.899C48.2188 57.0172 42.6362 59.3353 36.8122 59.3455ZM36.8122 19.2586C33.2285 19.2548 29.7241 20.314 26.7425 22.3022C23.7608 24.2905 21.4359 27.1184 20.0618 30.4283C18.6877 33.7381 18.3262 37.3812 19.023 40.8965C19.7198 44.4119 21.4436 47.6416 23.9763 50.1771C26.5091 52.7125 29.7369 54.4398 33.2516 55.1404C36.7662 55.8409 40.4096 55.4833 43.7209 54.1128C47.0323 52.7422 49.8627 50.4203 51.8541 47.4408C53.8455 44.4613 54.9085 40.958 54.9085 37.3743C54.9085 32.5731 53.0026 27.9682 49.6094 24.5714C46.2163 21.1746 41.6135 19.2638 36.8122 19.2586Z" fill="#2C3842"/>
<path d="M49.3284 108.616H24.6253C24.2553 108.617 23.897 108.488 23.6134 108.25C23.3298 108.013 23.1392 107.683 23.0753 107.318L18.309 82.4214C18.2645 82.191 18.2709 81.9537 18.3278 81.7261C18.3847 81.4985 18.4907 81.2862 18.6384 81.1039C18.7939 80.9282 18.9847 80.7873 19.1984 80.6905C19.4121 80.5937 19.6438 80.5431 19.8784 80.542H54.0946C54.3262 80.5446 54.5545 80.596 54.7649 80.6928C54.9752 80.7896 55.1627 80.9297 55.3153 81.1039C55.4629 81.2862 55.5689 81.4985 55.6258 81.7261C55.6827 81.9537 55.6892 82.191 55.6446 82.4214L50.8784 107.318C50.8145 107.683 50.6239 108.013 50.3403 108.25C50.0567 108.488 49.6983 108.617 49.3284 108.616ZM25.9428 105.439H48.0109L52.1571 83.7195H21.7965L25.9428 105.439Z" fill="#2C3842"/>
<path d="M51.6152 90.578H22.3396C22.1176 90.6026 21.8928 90.5801 21.68 90.512C21.4672 90.4439 21.2712 90.3317 21.1048 90.1826C20.9383 90.0336 20.8051 89.8512 20.714 89.6472C20.6228 89.4432 20.5757 89.2223 20.5757 88.9989C20.5757 88.7755 20.6228 88.5546 20.714 88.3506C20.8051 88.1466 20.9383 87.9642 21.1048 87.8152C21.2712 87.6662 21.4672 87.5539 21.68 87.4858C21.8928 87.4177 22.1176 87.3952 22.3396 87.4198H51.6152C51.8373 87.3952 52.0621 87.4177 52.2748 87.4858C52.4876 87.5539 52.6836 87.6662 52.8501 87.8152C53.0166 87.9642 53.1497 88.1466 53.2409 88.3506C53.3321 88.5546 53.3792 88.7755 53.3792 88.9989C53.3792 89.2223 53.3321 89.4432 53.2409 89.6472C53.1497 89.8512 53.0166 90.0336 52.8501 90.1826C52.6836 90.3317 52.4876 90.4439 52.2748 90.512C52.0621 90.5801 51.8373 90.6026 51.6152 90.578Z" fill="#2C3842"/>
<path d="M36.8125 83.3125C36.2986 83.3125 35.8058 83.1084 35.4425 82.745C35.0791 82.3817 34.875 81.8889 34.875 81.375V60.9731C34.875 60.4593 35.0791 59.9665 35.4425 59.6031C35.8058 59.2398 36.2986 59.0356 36.8125 59.0356C37.3264 59.0356 37.8192 59.2398 38.1825 59.6031C38.5459 59.9665 38.75 60.4593 38.75 60.9731V81.375C38.75 81.8889 38.5459 82.3817 38.1825 82.745C37.8192 83.1084 37.3264 83.3125 36.8125 83.3125Z" fill="#2C3842"/>
<path d="M24.8584 73.3149H15.1709V69.4399C15.1709 65.8429 16.5998 62.3933 19.1433 59.8498C21.6867 57.3063 25.1364 55.8774 28.7334 55.8774H38.4209V59.7524C38.4209 63.3494 36.992 66.7991 34.4485 69.3426C31.9051 71.886 28.4554 73.3149 24.8584 73.3149ZM19.0459 69.4399H24.8584C27.4277 69.4399 29.8917 68.4193 31.7085 66.6025C33.5253 64.7858 34.5459 62.3217 34.5459 59.7524H28.7334C26.1641 59.7524 23.7001 60.7731 21.8833 62.5898C20.0665 64.4066 19.0459 66.8707 19.0459 69.4399Z" fill="#2C3842"/>
<path d="M58.4541 73.3149H48.7666C45.1696 73.3149 41.7199 71.886 39.1765 69.3426C36.633 66.7991 35.2041 63.3494 35.2041 59.7524V55.8774H44.8916C48.4886 55.8774 51.9383 57.3063 54.4817 59.8498C57.0252 62.3933 58.4541 65.8429 58.4541 69.4399V73.3149ZM39.0791 59.7524C39.0791 62.3217 40.0997 64.7858 41.9165 66.6025C43.7333 68.4193 46.1973 69.4399 48.7666 69.4399H54.5791C54.5791 66.8707 53.5585 64.4066 51.7417 62.5898C49.9249 60.7731 47.4609 59.7524 44.8916 59.7524H39.0791Z" fill="#2C3842"/>
<path d="M34.0409 41.9506C36.7007 43.8046 40.3063 43.1136 42.0922 40.4077L45.0634 42.4777C44.3521 43.5559 43.4616 44.4365 42.4599 45.1061L42.8575 47.1811L39.3454 47.8541L39.0841 46.4904C37.8894 46.7194 36.6493 46.7108 35.4362 46.452L35.8338 48.527L32.3223 49.1999L31.4214 44.4988C27.8394 41.5439 26.8468 36.3641 29.0825 32.2937L28.1817 27.5932L31.6933 26.9203L32.0909 28.9953C33.1223 28.3058 34.2716 27.8399 35.4661 27.611L35.2048 26.2473L38.7169 25.5742L39.1146 27.6493C40.2928 27.901 41.4457 28.3894 42.5052 29.1283L40.5099 32.1507C37.85 30.2967 34.2444 30.9877 32.4586 33.6936C30.6715 36.3998 31.38 40.0967 34.0409 41.9505L34.0409 41.9506Z" fill="#2C3842"/>
<path d="M34.0409 41.9506C36.7007 43.8046 40.3063 43.1136 42.0922 40.4077L45.0634 42.4777C44.3521 43.5559 43.4616 44.4365 42.4599 45.1061L42.8575 47.1811L39.3454 47.8541L39.0841 46.4904C37.8894 46.7194 36.6493 46.7108 35.4362 46.452L35.8338 48.527L32.3223 49.1999L31.4214 44.4988C27.8394 41.5439 26.8468 36.3641 29.0825 32.2937L28.1817 27.5932L31.6933 26.9203L32.0909 28.9953C33.1223 28.3058 34.2716 27.8399 35.4661 27.611L35.2048 26.2473L38.7169 25.5742L39.1146 27.6493C40.2928 27.901 41.4457 28.3894 42.5052 29.1283L40.5099 32.1507C37.85 30.2967 34.2444 30.9877 32.4586 33.6936C30.6715 36.3998 31.38 40.0967 34.0409 41.9505L34.0409 41.9506Z" fill="#2C3842"/>
<path d="M83.8533 40.6638C85.4388 43.4919 88.9849 44.4421 91.7718 42.7855L93.5433 45.9438C92.4331 46.604 91.2476 47.0083 90.0543 47.1741L89.5075 49.2149L86.0532 48.2894L86.4126 46.9482C85.2377 46.6334 84.1254 46.0849 83.1465 45.3232L82.5996 47.3639L79.146 46.4385L80.3849 41.8149C78.4496 37.594 79.8146 32.4997 83.6013 29.8113L84.84 25.1883L88.2936 26.1137L87.7468 28.1544C88.9756 27.9836 90.2131 28.0654 91.3879 28.3802L91.7473 27.039L95.2015 27.9646L94.6546 30.0053C95.6053 30.7456 96.4298 31.6878 97.0612 32.8147L93.9478 34.6648C92.3624 31.8366 88.8162 30.8864 86.0293 32.543C83.2411 34.1993 82.2669 37.8352 83.8534 40.6637L83.8533 40.6638Z" fill="#2C3842"/>
</svg>
