<svg width="110" height="39" viewBox="0 0 110 39" fill="none" xmlns="http://www.w3.org/2000/svg">
<path d="M45.9688 25H47.125L49.8438 31.6406H49.9375L52.6563 25H53.8125V33H52.9062V26.9219H52.8281L50.3281 33H49.4531L46.9531 26.9219H46.875V33H45.9688V25ZM57.3955 33.1406C57.0153 33.1406 56.6702 33.069 56.3604 32.9258C56.0505 32.7799 55.8044 32.5703 55.6221 32.2969C55.4398 32.0208 55.3486 31.6875 55.3486 31.2969C55.3486 30.9531 55.4163 30.6745 55.5518 30.4609C55.6872 30.2448 55.8682 30.0755 56.0947 29.9531C56.3213 29.8307 56.5713 29.7396 56.8447 29.6797C57.1208 29.6172 57.3981 29.5677 57.6768 29.5313C58.0413 29.4844 58.3369 29.4492 58.5635 29.4258C58.7926 29.3997 58.9593 29.3568 59.0635 29.2969C59.1702 29.237 59.2236 29.1328 59.2236 28.9844V28.9531C59.2236 28.5677 59.1182 28.2682 58.9072 28.0547C58.6989 27.8411 58.3825 27.7344 57.958 27.7344C57.5179 27.7344 57.1729 27.8307 56.9229 28.0234C56.6729 28.2161 56.4971 28.4219 56.3955 28.6406L55.5205 28.3281C55.6768 27.9635 55.8851 27.6797 56.1455 27.4766C56.4085 27.2708 56.695 27.1276 57.0049 27.0469C57.3174 26.9635 57.6247 26.9219 57.9268 26.9219C58.1195 26.9219 58.3408 26.9453 58.5908 26.9922C58.8434 27.0365 59.0869 27.1289 59.3213 27.2695C59.5583 27.4102 59.7549 27.6224 59.9111 27.9062C60.0674 28.1901 60.1455 28.5703 60.1455 29.0469V33H59.2236V32.1875H59.1768C59.1143 32.3177 59.0101 32.457 58.8643 32.6055C58.7184 32.7539 58.5244 32.8802 58.2822 32.9844C58.04 33.0885 57.7445 33.1406 57.3955 33.1406ZM57.5361 32.3125C57.9007 32.3125 58.208 32.2409 58.458 32.0977C58.7106 31.9544 58.9007 31.7695 59.0283 31.543C59.1585 31.3164 59.2236 31.0781 59.2236 30.8281V29.9844C59.1846 30.0312 59.0986 30.0742 58.9658 30.1133C58.8356 30.1497 58.6846 30.1823 58.5127 30.2109C58.3434 30.237 58.1781 30.2604 58.0166 30.2812C57.8577 30.2995 57.7288 30.3151 57.6299 30.3281C57.3903 30.3594 57.1663 30.4102 56.958 30.4805C56.7523 30.5482 56.5856 30.651 56.458 30.7891C56.333 30.9245 56.2705 31.1094 56.2705 31.3437C56.2705 31.6641 56.389 31.9062 56.626 32.0703C56.8656 32.2318 57.1689 32.3125 57.5361 32.3125ZM61.8281 33V27H62.7187V27.9062H62.7813C62.8906 27.6094 63.0885 27.3685 63.375 27.1836C63.6615 26.9987 63.9844 26.9062 64.3438 26.9062C64.4115 26.9062 64.4961 26.9076 64.5977 26.9102C64.6992 26.9128 64.776 26.9167 64.8281 26.9219V27.8594C64.7969 27.8516 64.7253 27.8398 64.6133 27.8242C64.5039 27.806 64.388 27.7969 64.2656 27.7969C63.974 27.7969 63.7135 27.8581 63.4844 27.9805C63.2578 28.1003 63.0781 28.2669 62.9453 28.4805C62.8151 28.6914 62.75 28.9323 62.75 29.2031V33H61.8281ZM66.7803 30.8125L66.7646 29.6719H66.9521L69.5771 27H70.7178L67.9209 29.8281H67.8428L66.7803 30.8125ZM65.9209 33V25H66.8428V33H65.9209ZM69.7334 33L67.3896 30.0312L68.0459 29.3906L70.9053 33H69.7334ZM74.1729 33.125C73.5947 33.125 73.096 32.9974 72.6768 32.7422C72.2601 32.4844 71.9385 32.125 71.7119 31.6641C71.488 31.2005 71.376 30.6615 71.376 30.0469C71.376 29.4323 71.488 28.8906 71.7119 28.4219C71.9385 27.9505 72.2536 27.5833 72.6572 27.3203C73.0635 27.0547 73.5374 26.9219 74.0791 26.9219C74.3916 26.9219 74.7002 26.974 75.0049 27.0781C75.3096 27.1823 75.5869 27.3516 75.8369 27.5859C76.0869 27.8177 76.2861 28.125 76.4346 28.5078C76.583 28.8906 76.6572 29.362 76.6572 29.9219V30.3125H72.0322V29.5156H75.7197C75.7197 29.1771 75.652 28.875 75.5166 28.6094C75.3838 28.3437 75.1937 28.1341 74.9463 27.9805C74.7015 27.8268 74.4124 27.75 74.0791 27.75C73.7119 27.75 73.3942 27.8411 73.126 28.0234C72.8604 28.2031 72.6559 28.4375 72.5127 28.7266C72.3695 29.0156 72.2979 29.3255 72.2979 29.6562V30.1875C72.2979 30.6406 72.376 31.0247 72.5322 31.3398C72.6911 31.6523 72.9111 31.8906 73.1924 32.0547C73.4736 32.2161 73.8005 32.2969 74.1729 32.2969C74.415 32.2969 74.6338 32.263 74.8291 32.1953C75.027 32.125 75.1976 32.0208 75.3408 31.8828C75.484 31.7422 75.5947 31.5677 75.6729 31.3594L76.5635 31.6094C76.4697 31.9115 76.3122 32.1771 76.0908 32.4062C75.8695 32.6328 75.596 32.8099 75.2705 32.9375C74.945 33.0625 74.5791 33.125 74.1729 33.125ZM80.6689 27V27.7812H77.5596V27H80.6689ZM78.4658 25.5625H79.3877V31.2812C79.3877 31.5417 79.4255 31.737 79.501 31.8672C79.5791 31.9948 79.6781 32.0807 79.7979 32.125C79.9202 32.1667 80.0492 32.1875 80.1846 32.1875C80.2861 32.1875 80.3695 32.1823 80.4346 32.1719C80.4997 32.1589 80.5518 32.1484 80.5908 32.1406L80.7783 32.9687C80.7158 32.9922 80.6286 33.0156 80.5166 33.0391C80.4046 33.0651 80.2627 33.0781 80.0908 33.0781C79.8304 33.0781 79.5752 33.0221 79.3252 32.9102C79.0778 32.7982 78.8721 32.6276 78.708 32.3984C78.5465 32.1693 78.4658 31.8802 78.4658 31.5312V25.5625ZM82.0557 35.25V27H82.9463V27.9531H83.0557C83.1234 27.849 83.2171 27.7161 83.3369 27.5547C83.4593 27.3906 83.6338 27.2448 83.8604 27.1172C84.0895 26.987 84.3994 26.9219 84.79 26.9219C85.2952 26.9219 85.7406 27.0482 86.126 27.3008C86.5114 27.5534 86.8122 27.9115 87.0283 28.375C87.2445 28.8385 87.3525 29.3854 87.3525 30.0156C87.3525 30.651 87.2445 31.2018 87.0283 31.668C86.8122 32.1315 86.5127 32.4909 86.1299 32.7461C85.7471 32.9987 85.3057 33.125 84.8057 33.125C84.4202 33.125 84.1117 33.0612 83.8799 32.9336C83.6481 32.8034 83.4697 32.6562 83.3447 32.4922C83.2197 32.3255 83.1234 32.1875 83.0557 32.0781H82.9775V35.25H82.0557ZM82.9619 30C82.9619 30.4531 83.0283 30.8529 83.1611 31.1992C83.2939 31.543 83.488 31.8125 83.7432 32.0078C83.9984 32.2005 84.3109 32.2969 84.6807 32.2969C85.0661 32.2969 85.3877 32.1953 85.6455 31.9922C85.9059 31.7865 86.1012 31.5104 86.2314 31.1641C86.3643 30.8151 86.4307 30.4271 86.4307 30C86.4307 29.5781 86.3656 29.1979 86.2354 28.8594C86.1077 28.5182 85.9137 28.2487 85.6533 28.0508C85.3955 27.8503 85.0713 27.75 84.6807 27.75C84.3057 27.75 83.9906 27.8451 83.7354 28.0352C83.4801 28.2227 83.2874 28.4857 83.1572 28.8242C83.027 29.1602 82.9619 29.5521 82.9619 30ZM89.6807 25V33H88.7588V25H89.6807ZM93.1348 33.1406C92.7546 33.1406 92.4095 33.069 92.0996 32.9258C91.7897 32.7799 91.5436 32.5703 91.3613 32.2969C91.179 32.0208 91.0879 31.6875 91.0879 31.2969C91.0879 30.9531 91.1556 30.6745 91.291 30.4609C91.4264 30.2448 91.6074 30.0755 91.834 29.9531C92.0605 29.8307 92.3105 29.7396 92.584 29.6797C92.86 29.6172 93.1374 29.5677 93.416 29.5313C93.7806 29.4844 94.0762 29.4492 94.3027 29.4258C94.5319 29.3997 94.6986 29.3568 94.8027 29.2969C94.9095 29.237 94.9629 29.1328 94.9629 28.9844V28.9531C94.9629 28.5677 94.8574 28.2682 94.6465 28.0547C94.4382 27.8411 94.1217 27.7344 93.6973 27.7344C93.2572 27.7344 92.9121 27.8307 92.6621 28.0234C92.4121 28.2161 92.2363 28.4219 92.1348 28.6406L91.2598 28.3281C91.416 27.9635 91.6243 27.6797 91.8848 27.4766C92.1478 27.2708 92.4342 27.1276 92.7441 27.0469C93.0566 26.9635 93.3639 26.9219 93.666 26.9219C93.8587 26.9219 94.0801 26.9453 94.3301 26.9922C94.5827 27.0365 94.8262 27.1289 95.0605 27.2695C95.2975 27.4102 95.4941 27.6224 95.6504 27.9062C95.8066 28.1901 95.8848 28.5703 95.8848 29.0469V33H94.9629V32.1875H94.916C94.8535 32.3177 94.7493 32.457 94.6035 32.6055C94.4577 32.7539 94.2637 32.8802 94.0215 32.9844C93.7793 33.0885 93.4837 33.1406 93.1348 33.1406ZM93.2754 32.3125C93.64 32.3125 93.9473 32.2409 94.1973 32.0977C94.4499 31.9544 94.64 31.7695 94.7676 31.543C94.8978 31.3164 94.9629 31.0781 94.9629 30.8281V29.9844C94.9238 30.0312 94.8379 30.0742 94.7051 30.1133C94.5749 30.1497 94.4238 30.1823 94.252 30.2109C94.0827 30.237 93.9173 30.2604 93.7559 30.2812C93.597 30.2995 93.4681 30.3151 93.3691 30.3281C93.1296 30.3594 92.9056 30.4102 92.6973 30.4805C92.4915 30.5482 92.3249 30.651 92.1973 30.7891C92.0723 30.9245 92.0098 31.1094 92.0098 31.3437C92.0098 31.6641 92.1283 31.9062 92.3652 32.0703C92.6048 32.2318 92.9082 32.3125 93.2754 32.3125ZM100.005 33.125C99.4424 33.125 98.958 32.9922 98.5518 32.7266C98.1455 32.4609 97.833 32.0951 97.6143 31.6289C97.3955 31.1628 97.2861 30.6302 97.2861 30.0312C97.2861 29.4219 97.3981 28.8841 97.6221 28.418C97.8486 27.9492 98.1637 27.5833 98.5674 27.3203C98.9736 27.0547 99.4476 26.9219 99.9893 26.9219C100.411 26.9219 100.791 27 101.13 27.1562C101.468 27.3125 101.746 27.5312 101.962 27.8125C102.178 28.0937 102.312 28.4219 102.364 28.7969H101.442C101.372 28.5234 101.216 28.2812 100.974 28.0703C100.734 27.8568 100.411 27.75 100.005 27.75C99.6455 27.75 99.3304 27.8437 99.0596 28.0312C98.7913 28.2161 98.5817 28.4779 98.4307 28.8164C98.2822 29.1523 98.208 29.5469 98.208 30C98.208 30.4635 98.2809 30.8672 98.4268 31.2109C98.5752 31.5547 98.7835 31.8216 99.0518 32.0117C99.3226 32.2018 99.6403 32.2969 100.005 32.2969C100.244 32.2969 100.462 32.2552 100.657 32.1719C100.853 32.0885 101.018 31.9688 101.153 31.8125C101.289 31.6562 101.385 31.4687 101.442 31.25H102.364C102.312 31.6042 102.183 31.9232 101.978 32.207C101.774 32.4883 101.505 32.7122 101.169 32.8789C100.836 33.043 100.448 33.125 100.005 33.125ZM106.228 33.125C105.649 33.125 105.151 32.9974 104.731 32.7422C104.315 32.4844 103.993 32.125 103.767 31.6641C103.543 31.2005 103.431 30.6615 103.431 30.0469C103.431 29.4323 103.543 28.8906 103.767 28.4219C103.993 27.9505 104.308 27.5833 104.712 27.3203C105.118 27.0547 105.592 26.9219 106.134 26.9219C106.446 26.9219 106.755 26.974 107.06 27.0781C107.364 27.1823 107.642 27.3516 107.892 27.5859C108.142 27.8177 108.341 28.125 108.489 28.5078C108.638 28.8906 108.712 29.362 108.712 29.9219V30.3125H104.087V29.5156H107.774C107.774 29.1771 107.707 28.875 107.571 28.6094C107.438 28.3437 107.248 28.1341 107.001 27.9805C106.756 27.8268 106.467 27.75 106.134 27.75C105.767 27.75 105.449 27.8411 105.181 28.0234C104.915 28.2031 104.711 28.4375 104.567 28.7266C104.424 29.0156 104.353 29.3255 104.353 29.6562V30.1875C104.353 30.6406 104.431 31.0247 104.587 31.3398C104.746 31.6523 104.966 31.8906 105.247 32.0547C105.528 32.2161 105.855 32.2969 106.228 32.2969C106.47 32.2969 106.688 32.263 106.884 32.1953C107.082 32.125 107.252 32.0208 107.396 31.8828C107.539 31.7422 107.649 31.5677 107.728 31.3594L108.618 31.6094C108.524 31.9115 108.367 32.1771 108.146 32.4062C107.924 32.6328 107.651 32.8099 107.325 32.9375C107 33.0625 106.634 33.125 106.228 33.125Z" fill="#9B9B9B"/>
<path d="M14.6868 1.93064C17.9694 0.266282 21.8488 0.266285 25.1315 1.93064L35.1123 6.99107C37.6193 8.26215 39.1991 10.8344 39.1991 13.6452V24.9635C39.1991 27.7743 37.6193 30.3466 35.1123 31.6176L25.1315 36.6781C21.8488 38.3424 17.9694 38.3424 14.6868 36.6781L4.70594 31.6176C2.19894 30.3465 0.619141 27.7743 0.619141 24.9635V13.6452C0.619141 10.8344 2.19895 8.26215 4.70594 6.99106L14.6868 1.93064Z" fill="#00122E"/>
<path fill-rule="evenodd" clip-rule="evenodd" d="M14.5191 1.28833C17.9072 -0.429445 21.9111 -0.429442 25.2991 1.28833L35.6003 6.51117C38.1877 7.82305 39.8182 10.4778 39.8182 13.3789V25.0604C39.8182 27.9614 38.1877 30.6162 35.6002 31.9281L25.2991 37.151C21.9111 38.8687 17.9072 38.8687 14.5191 37.151L4.21796 31.9281C1.6305 30.6162 0 27.9614 0 25.0604V13.3789C0 10.4778 1.63051 7.82304 4.21796 6.51117L14.5191 1.28833ZM24.0589 3.73436C21.4504 2.41183 18.3678 2.41182 15.7593 3.73436L5.45813 8.9572C3.79224 9.80183 2.74246 11.5111 2.74246 13.3789V25.0604C2.74246 26.9282 3.79224 28.6375 5.45813 29.4821L15.7593 34.7049C18.3678 36.0275 21.4504 36.0275 24.0589 34.7049L34.3601 29.4821C36.026 28.6375 37.0758 26.9282 37.0758 25.0604V13.3789C37.0758 11.5111 36.026 9.80183 34.3601 8.9572L24.0589 3.73436Z" fill="url(#paint0_linear_2618_57356)"/>
<path d="M7.5527 25.7337C6.47462 25.1867 6.47462 23.6469 7.5527 23.0999L17.9995 17.7996C19.1994 17.1908 20.6176 17.1908 21.8175 17.7996L32.2643 23.0999C33.3424 23.6469 33.3424 25.1867 32.2643 25.7337L21.8175 31.034C20.6176 31.6428 19.1994 31.6428 17.9995 31.034L7.5527 25.7337Z" fill="url(#paint1_linear_2618_57356)"/>
<path d="M7.5527 20.431C6.47462 19.884 6.47462 18.3441 7.5527 17.7972L17.9995 12.4969C19.1994 11.8881 20.6176 11.8881 21.8175 12.4969L32.2643 17.7972C33.3424 18.3441 33.3424 19.884 32.2643 20.431L21.8175 25.7313C20.6176 26.34 19.1994 26.34 17.9995 25.7313L7.5527 20.431Z" fill="url(#paint2_linear_2618_57356)"/>
<path fill-rule="evenodd" clip-rule="evenodd" d="M29.6351 21.7655L21.8184 25.7314C20.6185 26.3402 19.2002 26.3402 18.0004 25.7314L10.1836 21.7655L18.0004 17.7996C19.2002 17.1908 20.6185 17.1908 21.8184 17.7996L29.6351 21.7655Z" fill="#FFCD01"/>
<path d="M7.55263 15.1615C6.47455 14.6145 6.47455 13.0746 7.55263 12.5276L17.9994 7.22734C19.1993 6.61857 20.6176 6.61857 21.8174 7.22734L32.2642 12.5276C33.3423 13.0746 33.3423 14.6145 32.2642 15.1615L21.8174 20.4618C20.6176 21.0705 19.1993 21.0705 17.9994 20.4618L7.55263 15.1615Z" fill="#23273B"/>
<path fill-rule="evenodd" clip-rule="evenodd" d="M7.5527 12.5276L17.9995 7.22733C19.1994 6.61856 20.6176 6.61856 21.8175 7.22733L32.2643 12.5276C33.3424 13.0746 33.3424 14.6145 32.2643 15.1614L21.8175 20.4617C20.6176 21.0705 19.1994 21.0705 17.9995 20.4618L7.5527 15.1614C6.47462 14.6145 6.47462 13.0746 7.5527 12.5276ZM25.3732 13.8245L24.1935 13.226C23.8936 13.0738 23.539 13.0738 23.239 13.226L16.4518 16.6696C16.1519 16.8218 15.7973 16.8218 15.4973 16.6696L9.96864 13.8646C9.81463 13.7864 9.81463 13.5664 9.96864 13.4883L19.1753 8.81719C19.4687 8.66831 19.8148 8.6649 20.1111 8.80795L21.5427 9.4991C21.6999 9.57498 21.7022 9.79804 21.5466 9.87713L14.4432 13.4882C14.2893 13.5664 14.2894 13.7863 14.4434 13.8644L15.4973 14.3991C15.7973 14.5513 16.1519 14.5513 16.4518 14.3991L23.239 10.9555C23.539 10.8034 23.8936 10.8034 24.1935 10.9555L29.8483 13.8245C30.0023 13.9027 30.0023 14.1227 29.8483 14.2008L20.5732 18.9066C20.2884 19.0511 19.9534 19.0588 19.6623 18.9275L18.1553 18.2477C17.9938 18.1749 17.9886 17.9475 18.1466 17.8673L25.3732 14.2008C25.5272 14.1227 25.5272 13.9027 25.3732 13.8245Z" fill="#6EDEF0"/>
<path d="M49.2106 20.5556C48.1324 20.5556 47.317 20.2524 46.7644 19.6459C46.2118 19.0259 45.9355 18.1432 45.9355 16.9976V16.1889H48.038V17.1593C48.038 18.0758 48.4221 18.534 49.1903 18.534C49.5677 18.534 49.8507 18.4262 50.0394 18.2106C50.2416 17.9814 50.3427 17.6175 50.3427 17.1189C50.3427 16.5259 50.2079 16.007 49.9383 15.5622C49.6688 15.104 49.1701 14.5582 48.4423 13.9247C47.5259 13.1161 46.8857 12.3883 46.5218 11.7414C46.1579 11.081 45.976 10.3397 45.976 9.51761C45.976 8.39898 46.259 7.53643 46.8251 6.92994C47.3911 6.30998 48.2132 6 49.2914 6C50.3561 6 51.1581 6.30998 51.6972 6.92994C52.2497 7.53643 52.526 8.41246 52.526 9.55804V10.1443H50.4235V9.41653C50.4235 8.93134 50.3292 8.58093 50.1405 8.36529C49.9518 8.13617 49.6755 8.02162 49.3116 8.02162C48.5704 8.02162 48.1998 8.47311 48.1998 9.3761C48.1998 9.88824 48.3345 10.3667 48.6041 10.8114C48.8871 11.2562 49.3925 11.7953 50.1203 12.4287C51.0502 13.2374 51.6904 13.9719 52.0408 14.6323C52.3912 15.2927 52.5664 16.0676 52.5664 16.9572C52.5664 18.1162 52.2767 19.0057 51.6972 19.6257C51.1311 20.2456 50.3022 20.5556 49.2106 20.5556Z" fill="white"/>
<path d="M57.1767 8.22378H54.8518V6.20216H61.7253V8.22378H59.4004V20.3535H57.1767V8.22378Z" fill="white"/>
<path d="M64.3986 6.20216H67.6938C68.8394 6.20216 69.675 6.47171 70.2006 7.01081C70.7262 7.53643 70.989 8.35181 70.989 9.45696V10.3263C70.989 11.7953 70.5038 12.7252 69.5335 13.1161V13.1565C70.0726 13.3182 70.4499 13.6484 70.6656 14.1471C70.8947 14.6458 71.0092 15.3129 71.0092 16.1485V18.6351C71.0092 19.0394 71.0227 19.3696 71.0497 19.6257C71.0766 19.8683 71.144 20.1109 71.2518 20.3535H68.9876C68.9068 20.1244 68.8529 19.9087 68.8259 19.7066C68.7989 19.5044 68.7855 19.1405 68.7855 18.6149V16.0272C68.7855 15.3803 68.6777 14.9288 68.462 14.6727C68.2599 14.4167 67.9027 14.2886 67.3906 14.2886H66.6223V20.3535H64.3986V6.20216ZM67.431 12.267C67.8757 12.267 68.2059 12.1525 68.4216 11.9233C68.6507 11.6942 68.7653 11.3101 68.7653 10.771V9.67934C68.7653 9.1672 68.6709 8.79657 68.4822 8.56745C68.307 8.33834 68.024 8.22378 67.6332 8.22378H66.6223V12.267H67.431Z" fill="white"/>
<path d="M75.8671 6.20216H78.8793L81.184 20.3535H78.9602L78.5559 17.5434V17.5839H76.0289L75.6245 20.3535H73.5625L75.8671 6.20216ZM78.2931 15.6633L77.3025 8.66853H77.262L76.2917 15.6633H78.2931Z" fill="white"/>
<path d="M84.6701 8.22378H82.3453V6.20216H89.2188V8.22378H86.8939V20.3535H84.6701V8.22378Z" fill="white"/>
<path d="M92.6825 6.20216H95.6947L97.9994 20.3535H95.7756L95.3713 17.5434V17.5839H92.8443L92.4399 20.3535H90.3779L92.6825 6.20216ZM95.1085 15.6633L94.1179 8.66853H94.0774L93.1071 15.6633H95.1085Z" fill="white"/>
<defs>
<linearGradient id="paint0_linear_2618_57356" x1="16.4136" y1="2.27428e-07" x2="33.859" y2="35.1886" gradientUnits="userSpaceOnUse">
<stop stop-color="#F07733"/>
<stop offset="1" stop-color="#F07733"/>
</linearGradient>
<linearGradient id="paint1_linear_2618_57356" x1="19.9085" y1="21.5587" x2="19.9085" y2="28.0925" gradientUnits="userSpaceOnUse">
<stop stop-color="white" stop-opacity="0.58"/>
<stop offset="1" stop-color="white"/>
</linearGradient>
<linearGradient id="paint2_linear_2618_57356" x1="19.9085" y1="14.1005" x2="19.9085" y2="23.0222" gradientUnits="userSpaceOnUse">
<stop stop-color="#FECC50" stop-opacity="0.57"/>
<stop offset="1" stop-color="#FECC50"/>
</linearGradient>
</defs>
</svg>
