<svg width="103" height="40" viewBox="0 0 103 40" fill="none" xmlns="http://www.w3.org/2000/svg">
<path d="M45.9688 32.8573V24.8573H46.9375V31.9979H50.6562V32.8573H45.9688Z" fill="#9B9B9B"/>
<path d="M53.7969 32.9979C53.4167 32.9979 53.0716 32.9263 52.7617 32.7831C52.4518 32.6372 52.2057 32.4276 52.0234 32.1542C51.8411 31.8781 51.75 31.5448 51.75 31.1542C51.75 30.8104 51.8177 30.5318 51.9531 30.3182C52.0885 30.1021 52.2695 29.9328 52.4961 29.8104C52.7227 29.688 52.9727 29.5969 53.2461 29.537C53.5221 29.4745 53.7995 29.425 54.0781 29.3886C54.4427 29.3417 54.7383 29.3065 54.9648 29.2831C55.194 29.257 55.3607 29.2141 55.4648 29.1542C55.5716 29.0943 55.625 28.9901 55.625 28.8417V28.8104C55.625 28.425 55.5195 28.1255 55.3086 27.912C55.1003 27.6984 54.7839 27.5917 54.3594 27.5917C53.9193 27.5917 53.5742 27.688 53.3242 27.8807C53.0742 28.0734 52.8984 28.2792 52.7969 28.4979L51.9219 28.1854C52.0781 27.8208 52.2865 27.537 52.5469 27.3339C52.8099 27.1281 53.0964 26.9849 53.4062 26.9042C53.7188 26.8208 54.026 26.7792 54.3281 26.7792C54.5208 26.7792 54.7422 26.8026 54.9922 26.8495C55.2448 26.8938 55.4883 26.9862 55.7227 27.1268C55.9596 27.2675 56.1562 27.4797 56.3125 27.7636C56.4688 28.0474 56.5469 28.4276 56.5469 28.9042V32.8573H55.625V32.0448H55.5781C55.5156 32.175 55.4115 32.3143 55.2656 32.4628C55.1198 32.6112 54.9258 32.7375 54.6836 32.8417C54.4414 32.9458 54.1458 32.9979 53.7969 32.9979ZM53.9375 32.1698C54.3021 32.1698 54.6094 32.0982 54.8594 31.955C55.112 31.8117 55.3021 31.6268 55.4297 31.4003C55.5599 31.1737 55.625 30.9354 55.625 30.6854V29.8417C55.5859 29.8885 55.5 29.9315 55.3672 29.9706C55.237 30.007 55.0859 30.0396 54.9141 30.0682C54.7448 30.0943 54.5794 30.1177 54.418 30.1385C54.2591 30.1568 54.1302 30.1724 54.0312 30.1854C53.7917 30.2167 53.5677 30.2675 53.3594 30.3378C53.1536 30.4055 52.987 30.5083 52.8594 30.6464C52.7344 30.7818 52.6719 30.9667 52.6719 31.201C52.6719 31.5214 52.7904 31.7635 53.0273 31.9276C53.2669 32.0891 53.5703 32.1698 53.9375 32.1698Z" fill="#9B9B9B"/>
<path d="M62.0107 30.4042V26.8573H62.9326V32.8573H62.0107V31.8417H61.9482C61.8076 32.1464 61.5889 32.4055 61.292 32.619C60.9951 32.83 60.6201 32.9354 60.167 32.9354C59.792 32.9354 59.4587 32.8534 59.167 32.6893C58.8753 32.5227 58.6462 32.2727 58.4795 31.9393C58.3128 31.6034 58.2295 31.1802 58.2295 30.6698V26.8573H59.1514V30.6073C59.1514 31.0448 59.2738 31.3938 59.5186 31.6542C59.766 31.9146 60.0811 32.0448 60.4639 32.0448C60.693 32.0448 60.9261 31.9862 61.1631 31.869C61.4027 31.7518 61.6032 31.5721 61.7646 31.33C61.9287 31.0878 62.0107 30.7792 62.0107 30.4042Z" fill="#9B9B9B"/>
<path d="M65.543 29.2479V32.8573H64.6211V26.8573H65.5117V27.7948H65.5898C65.7305 27.4901 65.944 27.2453 66.2305 27.0604C66.5169 26.8729 66.8867 26.7792 67.3398 26.7792C67.7461 26.7792 68.1016 26.8625 68.4062 27.0292C68.7109 27.1932 68.9479 27.4432 69.1172 27.7792C69.2865 28.1125 69.3711 28.5344 69.3711 29.0448V32.8573H68.4492V29.1073C68.4492 28.6359 68.3268 28.2688 68.082 28.0057C67.8372 27.7401 67.5013 27.6073 67.0742 27.6073C66.7799 27.6073 66.5169 27.6711 66.2852 27.7987C66.056 27.9263 65.875 28.1125 65.7422 28.3573C65.6094 28.6021 65.543 28.899 65.543 29.2479Z" fill="#9B9B9B"/>
<path d="M73.4932 32.9823C72.9307 32.9823 72.4463 32.8495 72.04 32.5839C71.6338 32.3182 71.3213 31.9524 71.1025 31.4862C70.8838 31.0201 70.7744 30.4875 70.7744 29.8885C70.7744 29.2792 70.8864 28.7414 71.1104 28.2753C71.3369 27.8065 71.652 27.4406 72.0557 27.1776C72.4619 26.912 72.9359 26.7792 73.4775 26.7792C73.8994 26.7792 74.2796 26.8573 74.6182 27.0136C74.9567 27.1698 75.234 27.3886 75.4502 27.6698C75.6663 27.951 75.8005 28.2792 75.8525 28.6542H74.9307C74.8604 28.3807 74.7041 28.1385 74.4619 27.9276C74.2223 27.7141 73.8994 27.6073 73.4932 27.6073C73.1338 27.6073 72.8187 27.701 72.5479 27.8885C72.2796 28.0734 72.07 28.3352 71.9189 28.6737C71.7705 29.0096 71.6963 29.4042 71.6963 29.8573C71.6963 30.3208 71.7692 30.7245 71.915 31.0682C72.0635 31.412 72.2718 31.6789 72.54 31.869C72.8109 32.0591 73.1286 32.1542 73.4932 32.1542C73.7327 32.1542 73.9502 32.1125 74.1455 32.0292C74.3408 31.9458 74.5062 31.826 74.6416 31.6698C74.777 31.5135 74.8734 31.3261 74.9307 31.1073H75.8525C75.8005 31.4615 75.6715 31.7805 75.4658 32.0643C75.2627 32.3456 74.9932 32.5695 74.6572 32.7362C74.3239 32.9003 73.9359 32.9823 73.4932 32.9823Z" fill="#9B9B9B"/>
<path d="M78.1221 29.2479V32.8573H77.2002V24.8573H78.1221V27.7948H78.2002C78.3408 27.4849 78.5518 27.2388 78.833 27.0565C79.1169 26.8716 79.4945 26.7792 79.9658 26.7792C80.3747 26.7792 80.7327 26.8612 81.04 27.0253C81.3473 27.1867 81.5856 27.4354 81.7549 27.7714C81.9268 28.1047 82.0127 28.5292 82.0127 29.0448V32.8573H81.0908V29.1073C81.0908 28.6307 80.9671 28.2622 80.7197 28.0018C80.4749 27.7388 80.1351 27.6073 79.7002 27.6073C79.3981 27.6073 79.1273 27.6711 78.8877 27.7987C78.6507 27.9263 78.4632 28.1125 78.3252 28.3573C78.1898 28.6021 78.1221 28.899 78.1221 29.2479Z" fill="#9B9B9B"/>
<path d="M83.6992 35.1073V26.8573H84.5898V27.8104H84.6992C84.7669 27.7063 84.8607 27.5734 84.9805 27.412C85.1029 27.2479 85.2773 27.1021 85.5039 26.9745C85.7331 26.8443 86.043 26.7792 86.4336 26.7792C86.9388 26.7792 87.3841 26.9055 87.7695 27.1581C88.1549 27.4107 88.4557 27.7688 88.6719 28.2323C88.888 28.6958 88.9961 29.2427 88.9961 29.8729C88.9961 30.5083 88.888 31.0591 88.6719 31.5253C88.4557 31.9888 88.1562 32.3482 87.7734 32.6034C87.3906 32.856 86.9492 32.9823 86.4492 32.9823C86.0638 32.9823 85.7552 32.9185 85.5234 32.7909C85.2917 32.6607 85.1133 32.5135 84.9883 32.3495C84.8633 32.1828 84.7669 32.0448 84.6992 31.9354H84.6211V35.1073H83.6992ZM84.6055 29.8573C84.6055 30.3104 84.6719 30.7102 84.8047 31.0565C84.9375 31.4003 85.1315 31.6698 85.3867 31.8651C85.6419 32.0578 85.9544 32.1542 86.3242 32.1542C86.7096 32.1542 87.0312 32.0526 87.2891 31.8495C87.5495 31.6438 87.7448 31.3677 87.875 31.0214C88.0078 30.6724 88.0742 30.2844 88.0742 29.8573C88.0742 29.4354 88.0091 29.0552 87.8789 28.7167C87.7513 28.3755 87.5573 28.106 87.2969 27.9081C87.0391 27.7076 86.7148 27.6073 86.3242 27.6073C85.9492 27.6073 85.6341 27.7024 85.3789 27.8925C85.1237 28.08 84.931 28.343 84.8008 28.6815C84.6706 29.0175 84.6055 29.4094 84.6055 29.8573Z" fill="#9B9B9B"/>
<path d="M92.168 32.9979C91.7878 32.9979 91.4427 32.9263 91.1328 32.7831C90.8229 32.6372 90.5768 32.4276 90.3945 32.1542C90.2122 31.8781 90.1211 31.5448 90.1211 31.1542C90.1211 30.8104 90.1888 30.5318 90.3242 30.3182C90.4596 30.1021 90.6406 29.9328 90.8672 29.8104C91.0938 29.688 91.3438 29.5969 91.6172 29.537C91.8932 29.4745 92.1706 29.425 92.4492 29.3886C92.8138 29.3417 93.1094 29.3065 93.3359 29.2831C93.5651 29.257 93.7318 29.2141 93.8359 29.1542C93.9427 29.0943 93.9961 28.9901 93.9961 28.8417V28.8104C93.9961 28.425 93.8906 28.1255 93.6797 27.912C93.4714 27.6984 93.1549 27.5917 92.7305 27.5917C92.2904 27.5917 91.9453 27.688 91.6953 27.8807C91.4453 28.0734 91.2695 28.2792 91.168 28.4979L90.293 28.1854C90.4492 27.8208 90.6576 27.537 90.918 27.3339C91.181 27.1281 91.4674 26.9849 91.7773 26.9042C92.0898 26.8208 92.3971 26.7792 92.6992 26.7792C92.8919 26.7792 93.1133 26.8026 93.3633 26.8495C93.6159 26.8938 93.8594 26.9862 94.0938 27.1268C94.3307 27.2675 94.5273 27.4797 94.6836 27.7636C94.8398 28.0474 94.918 28.4276 94.918 28.9042V32.8573H93.9961V32.0448H93.9492C93.8867 32.175 93.7826 32.3143 93.6367 32.4628C93.4909 32.6112 93.2969 32.7375 93.0547 32.8417C92.8125 32.9458 92.5169 32.9979 92.168 32.9979ZM92.3086 32.1698C92.6732 32.1698 92.9805 32.0982 93.2305 31.955C93.4831 31.8117 93.6732 31.6268 93.8008 31.4003C93.931 31.1737 93.9961 30.9354 93.9961 30.6854V29.8417C93.957 29.8885 93.8711 29.9315 93.7383 29.9706C93.6081 30.007 93.457 30.0396 93.2852 30.0682C93.1159 30.0943 92.9505 30.1177 92.7891 30.1385C92.6302 30.1568 92.5013 30.1724 92.4023 30.1854C92.1628 30.2167 91.9388 30.2675 91.7305 30.3378C91.5247 30.4055 91.3581 30.5083 91.2305 30.6464C91.1055 30.7818 91.043 30.9667 91.043 31.201C91.043 31.5214 91.1615 31.7635 91.3984 31.9276C91.638 32.0891 91.9414 32.1698 92.3086 32.1698Z" fill="#9B9B9B"/>
<path d="M98.8662 32.9823C98.3662 32.9823 97.9248 32.856 97.542 32.6034C97.1592 32.3482 96.8597 31.9888 96.6436 31.5253C96.4274 31.0591 96.3193 30.5083 96.3193 29.8729C96.3193 29.2427 96.4274 28.6958 96.6436 28.2323C96.8597 27.7688 97.1605 27.4107 97.5459 27.1581C97.9313 26.9055 98.3766 26.7792 98.8818 26.7792C99.2725 26.7792 99.5811 26.8443 99.8076 26.9745C100.037 27.1021 100.211 27.2479 100.331 27.412C100.453 27.5734 100.549 27.7063 100.616 27.8104H100.694V24.8573H101.616V32.8573H100.726V31.9354H100.616C100.549 32.0448 100.452 32.1828 100.327 32.3495C100.202 32.5135 100.024 32.6607 99.792 32.7909C99.5602 32.9185 99.2516 32.9823 98.8662 32.9823ZM98.9912 32.1542C99.361 32.1542 99.6735 32.0578 99.9287 31.8651C100.184 31.6698 100.378 31.4003 100.511 31.0565C100.644 30.7102 100.71 30.3104 100.71 29.8573C100.71 29.4094 100.645 29.0175 100.515 28.6815C100.384 28.343 100.192 28.08 99.9365 27.8925C99.6813 27.7024 99.3662 27.6073 98.9912 27.6073C98.6006 27.6073 98.2751 27.7076 98.0146 27.9081C97.7568 28.106 97.5628 28.3755 97.4326 28.7167C97.305 29.0552 97.2412 29.4354 97.2412 29.8573C97.2412 30.2844 97.3063 30.6724 97.4365 31.0214C97.5693 31.3677 97.7646 31.6438 98.0225 31.8495C98.2829 32.0526 98.6058 32.1542 98.9912 32.1542Z" fill="#9B9B9B"/>
<path d="M14.6868 1.9307C17.9694 0.266343 21.8488 0.266346 25.1315 1.9307L35.1123 6.99113C37.6193 8.26221 39.1991 10.8344 39.1991 13.6453V24.9636C39.1991 27.7744 37.6193 30.3466 35.1123 31.6177L25.1315 36.6781C21.8488 38.3425 17.9694 38.3425 14.6868 36.6781L4.70594 31.6177C2.19894 30.3466 0.619141 27.7744 0.619141 24.9636V13.6453C0.619141 10.8344 2.19895 8.26221 4.70594 6.99113L14.6868 1.9307Z" fill="#00122E"/>
<path fill-rule="evenodd" clip-rule="evenodd" d="M14.5191 1.28833C17.9072 -0.429445 21.9111 -0.429442 25.2991 1.28833L35.6003 6.51117C38.1877 7.82305 39.8182 10.4778 39.8182 13.3789V25.0604C39.8182 27.9614 38.1877 30.6162 35.6003 31.9281L25.2991 37.151C21.9111 38.8687 17.9072 38.8687 14.5191 37.151L4.21796 31.9281C1.6305 30.6162 0 27.9614 0 25.0604V13.3789C0 10.4778 1.63051 7.82304 4.21796 6.51117L14.5191 1.28833ZM24.0589 3.73436C21.4504 2.41183 18.3678 2.41182 15.7593 3.73436L5.45813 8.9572C3.79224 9.80183 2.74246 11.5111 2.74246 13.3789V25.0604C2.74246 26.9282 3.79224 28.6375 5.45813 29.4821L15.7593 34.7049C18.3678 36.0275 21.4504 36.0275 24.0589 34.7049L34.3601 29.4821C36.026 28.6375 37.0758 26.9282 37.0758 25.0604V13.3789C37.0758 11.5111 36.026 9.80183 34.3601 8.9572L24.0589 3.73436Z" fill="url(#paint0_linear_3093_62326)"/>
<path d="M7.55319 25.7336C6.47511 25.1867 6.47511 23.6468 7.55319 23.0998L18 17.7995C19.1998 17.1908 20.6181 17.1908 21.818 17.7995L32.2648 23.0998C33.3428 23.6468 33.3428 25.1867 32.2648 25.7336L21.818 31.0339C20.6181 31.6427 19.1998 31.6427 18 31.0339L7.55319 25.7336Z" fill="url(#paint1_linear_3093_62326)"/>
<path d="M7.55319 20.431C6.47511 19.8841 6.47511 18.3442 7.55319 17.7972L18 12.4969C19.1998 11.8882 20.6181 11.8882 21.818 12.4969L32.2648 17.7972C33.3428 18.3442 33.3428 19.8841 32.2648 20.431L21.818 25.7313C20.6181 26.3401 19.1998 26.3401 18 25.7313L7.55319 20.431Z" fill="url(#paint2_linear_3093_62326)"/>
<path fill-rule="evenodd" clip-rule="evenodd" d="M29.6347 21.7655L21.8179 25.7314C20.618 26.3402 19.1997 26.3402 17.9999 25.7314L10.1831 21.7655L17.9999 17.7995C19.1997 17.1908 20.618 17.1908 21.8179 17.7995L29.6347 21.7655Z" fill="#FFCD01"/>
<path d="M7.55312 15.1614C6.47504 14.6144 6.47504 13.0746 7.55312 12.5276L17.9999 7.22728C19.1998 6.61851 20.618 6.61851 21.8179 7.22728L32.2647 12.5276C33.3428 13.0746 33.3428 14.6144 32.2647 15.1614L21.8179 20.4617C20.618 21.0705 19.1998 21.0705 17.9999 20.4617L7.55312 15.1614Z" fill="#23273B"/>
<path fill-rule="evenodd" clip-rule="evenodd" d="M7.55319 12.5276L18 7.22727C19.1998 6.6185 20.6181 6.6185 21.818 7.22726L32.2648 12.5276C33.3429 13.0745 33.3429 14.6144 32.2648 15.1614L21.818 20.4617C20.6181 21.0705 19.1999 21.0705 18 20.4617L7.55319 15.1614C6.47511 14.6144 6.47511 13.0745 7.55319 12.5276ZM25.3735 13.8245L24.1939 13.226C23.8939 13.0738 23.5393 13.0738 23.2394 13.226L16.4522 16.6695C16.1522 16.8217 15.7976 16.8217 15.4977 16.6695L9.96894 13.8645C9.81493 13.7863 9.81493 13.5664 9.96894 13.4882L19.1756 8.81712C19.469 8.66824 19.8151 8.66483 20.1114 8.80788L21.543 9.49903C21.7002 9.57491 21.7025 9.79796 21.5469 9.87706L14.4435 13.4881C14.2897 13.5663 14.2897 13.7862 14.4437 13.8643L15.4977 14.399C15.7976 14.5512 16.1522 14.5512 16.4522 14.399L23.2394 10.9555C23.5393 10.8033 23.8939 10.8033 24.1939 10.9555L29.8486 13.8245C30.0026 13.9026 30.0026 14.1226 29.8486 14.2007L20.5735 18.9065C20.2887 19.051 19.9537 19.0587 19.6626 18.9274L18.1556 18.2477C17.9941 18.1748 17.9889 17.9474 18.1469 17.8672L25.3735 14.2007C25.5275 14.1226 25.5275 13.9026 25.3735 13.8245Z" fill="#6EDEF0"/>
<path d="M49.2111 20.5556C48.1329 20.5556 47.3175 20.2524 46.7649 19.6459C46.2123 19.0259 45.936 18.1432 45.936 16.9976V16.1889H48.0385V17.1593C48.0385 18.0758 48.4226 18.534 49.1908 18.534C49.5682 18.534 49.8512 18.4262 50.0399 18.2106C50.2421 17.9814 50.3432 17.6175 50.3432 17.1189C50.3432 16.5259 50.2084 16.007 49.9388 15.5622C49.6693 15.104 49.1706 14.5582 48.4428 13.9247C47.5264 13.1161 46.8862 12.3883 46.5223 11.7414C46.1584 11.081 45.9765 10.3397 45.9765 9.51761C45.9765 8.39898 46.2595 7.53643 46.8255 6.92994C47.3916 6.30998 48.2137 6 49.2919 6C50.3566 6 51.1585 6.30998 51.6976 6.92994C52.2502 7.53643 52.5265 8.41246 52.5265 9.55804V10.1443H50.424V9.41653C50.424 8.93134 50.3297 8.58093 50.141 8.36529C49.9523 8.13617 49.676 8.02162 49.3121 8.02162C48.5709 8.02162 48.2002 8.47311 48.2002 9.3761C48.2002 9.88824 48.335 10.3667 48.6046 10.8114C48.8876 11.2562 49.393 11.7953 50.1208 12.4287C51.0507 13.2374 51.6909 13.9719 52.0413 14.6323C52.3917 15.2927 52.5669 16.0676 52.5669 16.9572C52.5669 18.1162 52.2772 19.0057 51.6976 19.6257C51.1316 20.2456 50.3027 20.5556 49.2111 20.5556Z" fill="white"/>
<path d="M57.1772 8.22378H54.8523V6.20216H61.7258V8.22378H59.4009V20.3535H57.1772V8.22378Z" fill="white"/>
<path d="M64.3991 6.20216H67.6943C68.8399 6.20216 69.6755 6.47171 70.2011 7.01081C70.7267 7.53643 70.9895 8.35181 70.9895 9.45696V10.3263C70.9895 11.7953 70.5043 12.7252 69.534 13.1161V13.1565C70.0731 13.3182 70.4504 13.6484 70.6661 14.1471C70.8952 14.6458 71.0097 15.3129 71.0097 16.1485V18.6351C71.0097 19.0394 71.0232 19.3696 71.0502 19.6257C71.0771 19.8683 71.1445 20.1109 71.2523 20.3535H68.9881C68.9073 20.1244 68.8533 19.9087 68.8264 19.7066C68.7994 19.5044 68.786 19.1405 68.786 18.6149V16.0272C68.786 15.3803 68.6781 14.9288 68.4625 14.6727C68.2603 14.4167 67.9032 14.2886 67.391 14.2886H66.6228V20.3535H64.3991V6.20216ZM67.4315 12.267C67.8762 12.267 68.2064 12.1525 68.4221 11.9233C68.6512 11.6942 68.7657 11.3101 68.7657 10.771V9.67934C68.7657 9.1672 68.6714 8.79657 68.4827 8.56745C68.3075 8.33834 68.0245 8.22378 67.6336 8.22378H66.6228V12.267H67.4315Z" fill="white"/>
<path d="M75.8676 6.20216H78.8798L81.1845 20.3535H78.9607L78.5564 17.5434V17.5839H76.0293L75.625 20.3535H73.563L75.8676 6.20216ZM78.2935 15.6633L77.303 8.66853H77.2625L76.2921 15.6633H78.2935Z" fill="white"/>
<path d="M84.6706 8.22378H82.3458V6.20216H89.2193V8.22378H86.8944V20.3535H84.6706V8.22378Z" fill="white"/>
<path d="M92.683 6.20216H95.6952L97.9999 20.3535H95.7761L95.3718 17.5434V17.5839H92.8447L92.4404 20.3535H90.3784L92.683 6.20216ZM95.1089 15.6633L94.1184 8.66853H94.0779L93.1076 15.6633H95.1089Z" fill="white"/>
<defs>
<linearGradient id="paint0_linear_3093_62326" x1="16.4136" y1="2.27428e-07" x2="33.859" y2="35.1886" gradientUnits="userSpaceOnUse">
<stop stop-color="#F07733"/>
<stop offset="1" stop-color="#F07733"/>
</linearGradient>
<linearGradient id="paint1_linear_3093_62326" x1="19.909" y1="21.5587" x2="19.909" y2="28.0925" gradientUnits="userSpaceOnUse">
<stop stop-color="white" stop-opacity="0.58"/>
<stop offset="1" stop-color="white"/>
</linearGradient>
<linearGradient id="paint2_linear_3093_62326" x1="19.909" y1="14.1006" x2="19.909" y2="23.0223" gradientUnits="userSpaceOnUse">
<stop stop-color="#FECC50" stop-opacity="0.57"/>
<stop offset="1" stop-color="#FECC50"/>
</linearGradient>
</defs>
</svg>
