<svg width="124" height="124" viewBox="0 0 124 124" fill="none" xmlns="http://www.w3.org/2000/svg">
<g clip-path="url(#clip0_3111_62712)">
<path d="M87.5 56C95.5081 56 102 49.5081 102 41.5C102 33.4919 95.5081 27 87.5 27C79.4919 27 73 33.4919 73 41.5C73 49.5081 79.4919 56 87.5 56Z" fill="#7FE1F7"/>
<path d="M37.5 96C45.5081 96 52 89.5081 52 81.5C52 73.4919 45.5081 67 37.5 67C29.4919 67 23 73.4919 23 81.5C23 89.5081 29.4919 96 37.5 96Z" fill="#F5D4C1"/>
<path d="M9.59873 76.0407C6.82079 65.6763 7.17881 54.7209 10.6275 44.56C14.0762 34.3991 20.4607 25.4891 28.9734 18.9569C37.4862 12.4247 47.7449 8.56364 58.4522 7.86207C69.1594 7.1605 79.8342 9.64992 89.1266 15.0155C89.5734 15.2735 89.8995 15.6984 90.033 16.1968C90.1666 16.6951 90.0966 17.2262 89.8387 17.673C89.5807 18.1198 89.1558 18.4459 88.6574 18.5794C88.159 18.713 87.628 18.6431 87.1812 18.3851C78.5538 13.407 68.6443 11.0984 58.7051 11.7508C48.766 12.4033 39.2433 15.9876 31.3408 22.0508C23.4382 28.114 17.5105 36.3838 14.3068 45.8151C11.1031 55.2464 10.7672 65.4157 13.3417 75.0378C13.4747 75.5341 13.4051 76.063 13.1481 76.508C12.8912 76.953 12.468 77.2777 11.9717 77.4107C11.4753 77.5437 10.9465 77.4741 10.5015 77.2172C10.0564 76.9602 9.73172 76.537 9.59873 76.0407Z" fill="#2C3842"/>
<path d="M33.7617 107.677C33.6943 107.431 33.676 107.174 33.7081 106.921C33.7401 106.668 33.8218 106.424 33.9484 106.203C34.0753 105.981 34.245 105.786 34.4476 105.63C34.6502 105.474 34.8817 105.359 35.1288 105.293C35.3758 105.227 35.6336 105.21 35.8871 105.244C36.1406 105.278 36.3849 105.362 36.6059 105.491C45.227 110.522 55.1483 112.878 65.1109 112.261C75.0734 111.644 84.628 108.081 92.5622 102.024C100.496 95.9672 106.452 87.69 109.674 78.2427C112.896 68.7953 113.239 58.6038 110.659 48.9613C110.526 48.465 110.596 47.9361 110.852 47.4911C111.109 47.0461 111.533 46.7214 112.029 46.5884C112.525 46.4554 113.054 46.525 113.499 46.7819C113.944 47.0389 114.269 47.462 114.402 47.9584C117.185 58.3431 116.821 69.3208 113.354 79.4978C109.887 89.6748 103.474 98.5921 94.9296 105.118C86.3852 111.644 76.0945 115.483 65.3638 116.15C54.6332 116.816 43.9465 114.279 34.6604 108.86C34.4401 108.732 34.2473 108.561 34.0931 108.358C33.9389 108.155 33.8263 107.924 33.7617 107.677Z" fill="#2C3842"/>
<path d="M36.5552 118.101L33.7621 107.677C33.6291 107.181 33.6987 106.652 33.9556 106.207C34.2126 105.762 34.6357 105.437 35.1321 105.304L45.5563 102.511C46.0526 102.378 46.5815 102.448 47.0265 102.705C47.4715 102.962 47.7962 103.385 47.9292 103.881C48.0622 104.378 47.9926 104.906 47.7356 105.351C47.4787 105.796 47.0555 106.121 46.5592 106.254L38.0065 108.546L40.2982 117.099C40.4312 117.595 40.3616 118.124 40.1046 118.569C39.8477 119.014 39.4245 119.339 38.9282 119.471C38.4318 119.604 37.903 119.535 37.4579 119.278C37.0129 119.021 36.6882 118.598 36.5552 118.101Z" fill="#2C3842"/>
<path d="M75.8531 19.976C75.7201 19.4796 75.7897 18.9508 76.0466 18.5058C76.3036 18.0608 76.7268 17.736 77.2231 17.603L85.7758 15.3114L83.4841 6.75868C83.3511 6.26233 83.4207 5.73348 83.6776 5.28847C83.9346 4.84346 84.3578 4.51874 84.8541 4.38574C85.3505 4.25274 85.8793 4.32237 86.3243 4.5793C86.7693 4.83623 87.0941 5.25941 87.227 5.75576L90.0202 16.1799C90.1532 16.6763 90.0836 17.2051 89.8266 17.6501C89.5697 18.0951 89.1465 18.4199 88.6502 18.5529L78.226 21.346C77.7297 21.479 77.2008 21.4094 76.7558 21.1524C76.3108 20.8955 75.9861 20.4723 75.8531 19.976Z" fill="#2C3842"/>
<mask id="mask0_3111_62712" style="mask-type:alpha" maskUnits="userSpaceOnUse" x="33" y="27" width="68" height="68">
<rect x="33" y="27" width="68" height="68" fill="#C4C4C4"/>
</mask>
<g mask="url(#mask0_3111_62712)">
<path d="M91.0015 85.9982L80.6315 75.6282C84.3857 71.1798 86.6665 65.4395 86.6665 59.1665C86.6665 45.0848 75.2482 33.6665 61.1665 33.6665C47.0848 33.6665 35.6665 45.0848 35.6665 59.1665C35.6665 73.2482 47.0848 84.6665 61.1665 84.6665C67.4423 84.6665 73.1798 82.3885 77.6225 78.6315L87.9925 89.0015C88.409 89.4152 88.9558 89.6248 89.4942 89.6248C90.0325 89.6248 90.585 89.418 90.9958 89.0015C91.8317 88.1713 91.8317 86.8283 91.0015 85.9982ZM39.9165 59.1665C39.9165 47.4507 49.4507 37.9165 61.1665 37.9165C72.8823 37.9165 82.4165 47.4507 82.4165 59.1665C82.4165 70.8823 72.8823 80.4165 61.1665 80.4165C49.4507 80.4165 39.9165 70.8823 39.9165 59.1665Z" fill="#2C3842"/>
<path d="M60.9851 73.2254C59.0854 73.3802 57.1872 72.91 55.5794 71.8863C53.9717 70.8626 52.7425 69.3415 52.0792 67.5547C52.0092 67.3256 51.9853 67.0849 52.0087 66.8465C52.0321 66.6081 52.1024 66.3766 52.2156 66.1655C52.3288 65.9544 52.4826 65.7677 52.6681 65.6162C52.8537 65.4647 53.0674 65.3514 53.2969 65.2828C53.5272 65.2132 53.769 65.19 54.0084 65.2146C54.2477 65.2392 54.4798 65.3111 54.6911 65.426C54.9024 65.541 55.0889 65.6968 55.2395 65.8843C55.3902 66.0719 55.5021 66.2875 55.5688 66.5187C55.6597 66.8095 56.6957 69.5903 61.0215 69.5903C64.3294 69.5903 66.365 67.6274 66.365 65.8098C66.365 63.9923 65.9288 61.7931 60.6034 60.5026C55.278 59.2122 52.7335 56.6494 52.7335 52.7781C52.7335 48.9067 55.0054 44.9808 61.3486 44.9808C62.8052 44.9202 64.2542 45.2203 65.5669 45.8544C66.8796 46.4886 68.0154 47.4372 68.8733 48.6159C69.148 49.0136 69.2536 49.5041 69.1666 49.9796C69.0797 50.4551 68.8075 50.8766 68.4098 51.1514C68.0121 51.4261 67.5216 51.5317 67.0461 51.4447C66.5706 51.3578 66.1491 51.0856 65.8743 50.6879C65.3578 49.9857 64.6719 49.4257 63.8805 49.0603C63.0892 48.6948 62.2181 48.5356 61.3486 48.5977C58.0407 48.5977 56.3686 49.9972 56.3686 52.7599C56.3686 53.7232 56.3686 55.7225 61.4395 56.9402C67.3647 58.3761 70.0001 61.1024 70.0001 65.7917C69.9638 69.4631 66.6013 73.2254 60.9851 73.2254Z" fill="#2C3842"/>
<path d="M61.3122 48.6159C60.8301 48.6159 60.3678 48.4244 60.027 48.0835C59.6861 47.7427 59.4946 47.2804 59.4946 46.7983V43.8175C59.4946 43.3355 59.6861 42.8732 60.027 42.5323C60.3678 42.1915 60.8301 42 61.3122 42C61.7942 42 62.2565 42.1915 62.5974 42.5323C62.9382 42.8732 63.1297 43.3355 63.1297 43.8175V46.7983C63.1297 47.2804 62.9382 47.7427 62.5974 48.0835C62.2565 48.4244 61.7942 48.6159 61.3122 48.6159Z" fill="#2C3842"/>
<path d="M61.3122 76.2062C60.8301 76.2062 60.3678 76.0147 60.027 75.6738C59.6861 75.333 59.4946 74.8707 59.4946 74.3886V71.4079C59.4946 70.9258 59.6861 70.4635 60.027 70.1227C60.3678 69.7818 60.8301 69.5903 61.3122 69.5903C61.7942 69.5903 62.2565 69.7818 62.5974 70.1227C62.9382 70.4635 63.1297 70.9258 63.1297 71.4079V74.3886C63.1297 74.8707 62.9382 75.333 62.5974 75.6738C62.2565 76.0147 61.7942 76.2062 61.3122 76.2062Z" fill="#2C3842"/>
</g>
</g>
<defs>
<clipPath id="clip0_3111_62712">
<rect width="124" height="124" fill="white"/>
</clipPath>
</defs>
</svg>
