<svg width="124" height="124" viewBox="0 0 124 124" fill="none" xmlns="http://www.w3.org/2000/svg">
<path d="M38.75 66.8438C53.1957 66.8438 64.9062 55.1332 64.9062 40.6875C64.9062 26.2418 53.1957 14.5312 38.75 14.5312C24.3043 14.5312 12.5938 26.2418 12.5938 40.6875C12.5938 55.1332 24.3043 66.8438 38.75 66.8438Z" fill="#82FFF0"/>
<path d="M59.2737 66.2036C61.5371 68.5251 65.2083 68.5251 67.4715 66.2036L70 68.7958C69.0985 69.7209 68.0581 70.4182 66.9483 70.8872V73H63.3723V71.6115C62.1559 71.6115 60.9396 71.3696 59.7968 70.8872V73H56.2214V68.2132C53.2595 64.637 53.2595 59.363 56.2214 55.7861V51H59.7968V53.1128C60.9396 52.6297 62.156 52.3885 63.3723 52.3885V51H66.9483V53.1128C68.0581 53.5818 69.0985 54.2785 70 55.2036L67.4715 57.7964C65.2081 55.4749 61.5369 55.4749 59.2737 57.7964C57.0092 60.1179 57.0092 63.882 59.2737 66.2035V66.2036Z" fill="#2C3842"/>
<path d="M16.1395 111.639C15.8976 111.641 15.6578 111.594 15.4346 111.501C15.2114 111.407 15.0096 111.27 14.8413 111.096C14.6661 110.926 14.5269 110.723 14.4317 110.498C14.3366 110.274 14.2876 110.032 14.2876 109.788C14.2876 109.544 14.3366 109.303 14.4317 109.078C14.5269 108.853 14.6661 108.65 14.8413 108.48L29.8957 93.426C30.0368 93.1569 30.2392 92.9248 30.4866 92.7483C30.734 92.5719 31.0194 92.4561 31.3197 92.4103C31.6201 92.3645 31.9271 92.39 32.2158 92.4848C32.5045 92.5795 32.7668 92.7408 32.9817 92.9557C33.1965 93.1705 33.3579 93.4329 33.4526 93.7216C33.5473 94.0103 33.5728 94.3172 33.527 94.6176C33.4813 94.918 33.3655 95.2034 33.189 95.4508C33.0126 95.6981 32.7804 95.9005 32.5113 96.0416L17.4376 111.096C17.268 111.268 17.0659 111.405 16.843 111.498C16.6202 111.591 16.381 111.639 16.1395 111.639Z" fill="#2C3842"/>
<path d="M31.2132 107.531C30.6994 107.531 30.2066 107.327 29.8432 106.964C29.4798 106.6 29.2757 106.108 29.2757 105.594V96.4874H20.1695C19.7746 96.3648 19.4293 96.119 19.1841 95.7861C18.9389 95.4532 18.8066 95.0506 18.8066 94.6371C18.8066 94.2236 18.9389 93.821 19.1841 93.4881C19.4293 93.1552 19.7746 92.9094 20.1695 92.7868H31.1357C31.3866 92.7836 31.6355 92.8323 31.8667 92.9298C32.0979 93.0273 32.3064 93.1716 32.4792 93.3535C32.652 93.5354 32.7854 93.7511 32.871 93.987C32.9565 94.2228 32.9924 94.4739 32.9763 94.7243V105.691C32.9548 106.159 32.7642 106.603 32.4401 106.942C32.1159 107.28 31.68 107.489 31.2132 107.531Z" fill="#2C3842"/>
<path d="M107.86 111.639C107.616 111.641 107.373 111.595 107.146 111.501C106.92 111.408 106.715 111.27 106.543 111.096L91.4885 96.0416C91.2194 95.9005 90.9873 95.6981 90.8108 95.4508C90.6344 95.2034 90.5186 94.918 90.4728 94.6176C90.427 94.3172 90.4525 94.0103 90.5473 93.7216C90.642 93.4329 90.8033 93.1705 91.0182 92.9557C91.233 92.7408 91.4954 92.5795 91.7841 92.4848C92.0728 92.39 92.3797 92.3645 92.6801 92.4103C92.9805 92.4561 93.2659 92.5719 93.5133 92.7483C93.7606 92.9248 93.963 93.1569 94.1041 93.426L109.159 108.5C109.334 108.67 109.473 108.873 109.568 109.097C109.663 109.322 109.712 109.564 109.712 109.808C109.712 110.052 109.663 110.293 109.568 110.518C109.473 110.742 109.334 110.946 109.159 111.115C108.989 111.286 108.786 111.42 108.563 111.51C108.34 111.6 108.101 111.643 107.86 111.639Z" fill="#2C3842"/>
<path d="M92.7867 107.531C92.2728 107.531 91.78 107.327 91.4167 106.964C91.0533 106.6 90.8492 106.107 90.8492 105.594V94.7242C90.8321 94.4653 90.8704 94.2058 90.9618 93.9629C91.0531 93.7201 91.1952 93.4996 91.3786 93.3161C91.5621 93.1327 91.7826 92.9906 92.0254 92.8993C92.2683 92.8079 92.5278 92.7696 92.7867 92.7867H103.753C104.148 92.9093 104.493 93.1551 104.738 93.488C104.984 93.8209 105.116 94.2235 105.116 94.637C105.116 95.0505 104.984 95.4531 104.738 95.786C104.493 96.1189 104.148 96.3647 103.753 96.4873H94.6467V105.594C94.6471 106.094 94.4536 106.576 94.1069 106.937C93.7601 107.298 93.287 107.511 92.7867 107.531Z" fill="#2C3842"/>
<path d="M92.7869 31.116C92.5451 31.1184 92.3052 31.0715 92.0821 30.9783C91.8589 30.885 91.6571 30.7473 91.4888 30.5735C91.3136 30.4037 91.1743 30.2005 91.0792 29.9758C90.9841 29.7512 90.9351 29.5097 90.9351 29.2657C90.9351 29.0217 90.9841 28.7803 91.0792 28.5556C91.1743 28.3309 91.3136 28.1277 91.4888 27.9579L106.563 12.9035C106.699 12.6279 106.899 12.3888 107.147 12.2059C107.394 12.023 107.681 11.9016 107.985 11.8518C108.288 11.8019 108.599 11.8251 108.892 11.9193C109.185 12.0136 109.451 12.1761 109.669 12.3937C109.886 12.6112 110.049 12.8773 110.143 13.1701C110.237 13.4629 110.26 13.774 110.211 14.0775C110.161 14.381 110.039 14.6684 109.856 14.9157C109.674 15.163 109.434 15.3632 109.159 15.4998L94.1044 30.5542C93.7532 30.9029 93.2817 31.1039 92.7869 31.116Z" fill="#2C3842"/>
<path d="M103.753 31.1165H92.7868C92.5364 31.1325 92.2853 31.0966 92.0495 31.0111C91.8136 30.9255 91.5979 30.7922 91.416 30.6194C91.2341 30.4465 91.0898 30.238 90.9923 30.0068C90.8948 29.7756 90.8461 29.5268 90.8493 29.2759V18.3096C90.9719 17.9147 91.2177 17.5695 91.5506 17.3243C91.8835 17.079 92.2861 16.9468 92.6996 16.9468C93.1131 16.9468 93.5157 17.079 93.8486 17.3243C94.1815 17.5695 94.4273 17.9147 94.5499 18.3096V27.4159H103.656C104.051 27.5385 104.396 27.7842 104.642 28.1171C104.887 28.4501 105.019 28.8527 105.019 29.2662C105.019 29.6796 104.887 30.0823 104.642 30.4152C104.396 30.7481 104.051 30.9938 103.656 31.1165H103.753Z" fill="#2C3842"/>
<path d="M31.2129 31.116C30.7208 31.1091 30.2497 30.9152 29.8954 30.5735L14.841 15.4998C14.6611 15.1365 14.5996 14.7259 14.6652 14.3258C14.7309 13.9257 14.9204 13.5563 15.2071 13.2696C15.4938 12.9829 15.8632 12.7934 16.2633 12.7277C16.6634 12.6621 17.074 12.7236 17.4373 12.9035L32.4917 27.9579C32.6669 28.1277 32.8062 28.331 32.9013 28.5556C32.9964 28.7803 33.0454 29.0218 33.0454 29.2657C33.0454 29.5097 32.9964 29.7512 32.9013 29.9758C32.8062 30.2005 32.6669 30.4038 32.4917 30.5735C32.3257 30.745 32.127 30.8813 31.9073 30.9745C31.6877 31.0677 31.4515 31.1158 31.2129 31.116Z" fill="#2C3842"/>
<path d="M31.2134 31.1165H20.2471C19.8522 30.9938 19.507 30.7481 19.2618 30.4152C19.0165 30.0823 18.8843 29.6796 18.8843 29.2662C18.8843 28.8527 19.0165 28.4501 19.2618 28.1171C19.507 27.7842 19.8522 27.5385 20.2471 27.4159H29.3534V18.3096C29.476 17.9147 29.7217 17.5695 30.0546 17.3243C30.3876 17.079 30.7902 16.9468 31.2037 16.9468C31.6171 16.9468 32.0198 17.079 32.3527 17.3243C32.6856 17.5695 32.9313 17.9147 33.054 18.3096V29.2759C33.0566 29.5183 33.0107 29.7588 32.9192 29.9833C32.8276 30.2078 32.6921 30.4117 32.5207 30.5831C32.3492 30.7546 32.1453 30.8901 31.9208 30.9817C31.6963 31.0732 31.4558 31.1191 31.2134 31.1165Z" fill="#2C3842"/>
<path d="M62.0001 87.052C57.0453 87.052 52.2018 85.5827 48.0821 82.83C43.9623 80.0773 40.7513 76.1647 38.8552 71.5871C36.9591 67.0094 36.463 61.9723 37.4296 57.1128C38.3963 52.2532 40.7822 47.7893 44.2858 44.2858C47.7893 40.7822 52.2532 38.3963 57.1128 37.4296C61.9723 36.463 67.0094 36.9591 71.5871 38.8552C76.1647 40.7513 80.0773 43.9623 82.83 48.0821C85.5827 52.2018 87.052 57.0453 87.052 62.0001C87.0469 68.6427 84.4058 75.0118 79.7088 79.7088C75.0118 84.4058 68.6427 87.0469 62.0001 87.052ZM62.0001 40.8233C57.8117 40.8233 53.7174 42.0653 50.2349 44.3922C46.7524 46.7191 44.0381 50.0265 42.4352 53.8961C40.8324 57.7657 40.413 62.0236 41.2302 66.1315C42.0473 70.2394 44.0642 74.0128 47.0258 76.9744C49.9875 79.9361 53.7608 81.953 57.8687 82.7701C61.9766 83.5872 66.2346 83.1678 70.1042 81.565C73.9737 79.9622 77.2811 77.2479 79.6081 73.7654C81.935 70.2829 83.177 66.1885 83.177 62.0001C83.1415 56.3946 80.8989 51.0289 76.9352 47.0651C72.9714 43.1014 67.6056 40.8588 62.0001 40.8233Z" fill="#2C3842"/>
<path d="M61.9998 98.1537C54.8484 98.1576 47.8566 96.0404 41.9086 92.0701C35.9606 88.0998 31.3236 82.4547 28.5843 75.8488C25.8449 69.2429 25.1262 61.973 26.519 54.9586C27.9118 47.9442 31.3536 41.5004 36.409 36.4423C41.4644 31.3841 47.9064 27.9389 54.9201 26.5423C61.9337 25.1457 69.204 25.8606 75.8114 28.5964C82.4188 31.3322 88.0663 35.9661 92.0398 41.912C96.0133 47.8579 98.1342 54.8486 98.1342 62C98.1291 71.5836 94.321 80.7735 87.5462 87.552C80.7713 94.3305 71.5834 98.1435 61.9998 98.1537ZM61.9998 29.7212C55.6148 29.7174 49.3722 31.6072 44.0614 35.1517C38.7506 38.6962 34.6104 43.7361 32.1643 49.634C29.7182 55.5318 29.0762 62.0226 30.3195 68.2854C31.5628 74.5481 34.6356 80.3014 39.149 84.8176C43.6625 89.3338 49.414 92.41 55.676 93.6571C61.938 94.9041 68.4292 94.266 74.3285 91.8235C80.2278 89.381 85.2702 85.2437 88.8179 79.9351C92.3656 74.6265 94.2592 68.3849 94.2592 62C94.2489 53.4456 90.8475 45.2443 84.8005 39.1936C78.7534 33.1429 70.5541 29.7366 61.9998 29.7212Z" fill="#2C3842"/>
<path d="M62 35.398C61.745 35.3994 61.4922 35.3506 61.2561 35.2541C61.0201 35.1577 60.8054 35.0156 60.6243 34.8361C60.4532 34.6477 60.3156 34.4315 60.2175 34.1967C60.115 33.9648 60.062 33.714 60.062 33.4605C60.062 33.2069 60.115 32.9561 60.2175 32.7242C60.3156 32.4894 60.4532 32.2732 60.6243 32.0848C60.8045 31.9032 61.0187 31.7591 61.2548 31.6607C61.4909 31.5624 61.7442 31.5117 62 31.5117C62.2557 31.5117 62.509 31.5624 62.7451 31.6607C62.9812 31.7591 63.1955 31.9032 63.3756 32.0848C63.5467 32.2732 63.6843 32.4894 63.7825 32.7242C63.885 32.9561 63.9379 33.2069 63.9379 33.4605C63.9379 33.714 63.885 33.9648 63.7825 34.1967C63.6954 34.4371 63.5566 34.6555 63.3758 34.8363C63.195 35.0171 62.9767 35.1559 62.7362 35.243C62.5033 35.3422 62.2532 35.3949 62 35.398Z" fill="#2C3842"/>
<path d="M82.189 43.7486C81.6751 43.7486 81.1823 43.5445 80.819 43.1811C80.4556 42.8178 80.2515 42.3249 80.2515 41.8111C80.2536 41.3028 80.4554 40.8157 80.8133 40.4548C80.9853 40.2679 81.1972 40.1221 81.4333 40.0286C81.788 39.8826 82.178 39.8452 82.554 39.9211C82.9299 39.997 83.2749 40.1827 83.5452 40.4548C83.9103 40.8126 84.1192 41.3 84.1265 41.8111C84.1254 42.0674 84.0735 42.321 83.9737 42.5572C83.8739 42.7933 83.7283 43.0073 83.5452 43.1867C83.1843 43.5447 82.6972 43.7464 82.189 43.7486Z" fill="#2C3842"/>
<path d="M90.5396 63.9374C90.2846 63.9389 90.0318 63.89 89.7957 63.7936C89.5597 63.6972 89.345 63.5551 89.1639 63.3755C88.9928 63.1872 88.8552 62.971 88.7571 62.7362C88.6578 62.5032 88.6051 62.2531 88.6021 61.9999C88.6092 61.4869 88.8099 60.9956 89.1639 60.6243C89.3523 60.4531 89.5685 60.3155 89.8033 60.2174C90.1561 60.069 90.545 60.0285 90.9209 60.1009C91.2967 60.1733 91.6427 60.3554 91.9152 60.6243C92.2692 60.9956 92.4699 61.4869 92.4771 61.9999C92.4801 62.2518 92.4341 62.5019 92.3414 62.7362C92.2361 62.9716 92.092 63.1878 91.9152 63.3755C91.7341 63.5551 91.5194 63.6972 91.2834 63.7936C91.0473 63.89 90.7945 63.9389 90.5396 63.9374Z" fill="#2C3842"/>
<path d="M82.1889 84.126C81.9325 84.125 81.6789 84.0731 81.4428 83.9733C81.2067 83.8735 80.9927 83.7279 80.8132 83.5448C80.6263 83.3729 80.4806 83.1609 80.387 82.9248C80.241 82.5701 80.2036 82.1801 80.2795 81.8042C80.3554 81.4282 80.5411 81.0832 80.8132 80.8129C81.1763 80.4521 81.6673 80.2495 82.1792 80.2495C82.691 80.2495 83.1821 80.4521 83.5451 80.8129C83.8172 81.0832 84.003 81.4282 84.0789 81.8042C84.1547 82.1801 84.1173 82.5701 83.9714 82.9248C83.8778 83.1609 83.7321 83.3729 83.5451 83.5448C83.1874 83.9098 82.6999 84.1188 82.1889 84.126Z" fill="#2C3842"/>
<path d="M62 92.4767C61.4861 92.4767 60.9933 92.2725 60.63 91.9092C60.2666 91.5458 60.0625 91.053 60.0625 90.5392C60.0696 90.0262 60.2703 89.5348 60.6244 89.1635C60.8127 88.9924 61.029 88.8548 61.2638 88.7567C61.7355 88.5629 62.2645 88.5629 62.7363 88.7567C62.971 88.8548 63.1873 88.9924 63.3756 89.1635C63.7297 89.5348 63.9304 90.0262 63.9375 90.5392C63.9375 91.053 63.7334 91.5458 63.37 91.9092C63.0067 92.2725 62.5139 92.4767 62 92.4767Z" fill="#2C3842"/>
<path d="M41.8111 84.126C41.3 84.1188 40.8126 83.9098 40.4548 83.5448C40.2679 83.3729 40.1221 83.1609 40.0286 82.9248C39.8826 82.5701 39.8452 82.1801 39.9211 81.8042C39.997 81.4282 40.1827 81.0832 40.4548 80.8129C40.8179 80.4521 41.3089 80.2495 41.8208 80.2495C42.3326 80.2495 42.8237 80.4521 43.1867 80.8129C43.4588 81.0832 43.6446 81.4282 43.7204 81.8042C43.7963 82.1801 43.7589 82.5701 43.613 82.9248C43.5194 83.1609 43.3737 83.3729 43.1867 83.5448C43.0073 83.7279 42.7933 83.8735 42.5572 83.9733C42.321 84.0731 42.0674 84.125 41.8111 84.126Z" fill="#2C3842"/>
<path d="M33.4604 63.9375C33.2055 63.939 32.9527 63.8901 32.7166 63.7937C32.4806 63.6973 32.2659 63.5552 32.0848 63.3756C31.9137 63.1873 31.7761 62.971 31.6779 62.7363C31.5787 62.5033 31.526 62.2532 31.5229 62C31.5229 61.4861 31.7271 60.9933 32.0904 60.63C32.4538 60.2666 32.9466 60.0625 33.4604 60.0625C33.9743 60.0625 34.4671 60.2666 34.8305 60.63C35.1938 60.9933 35.3979 61.4861 35.3979 62C35.3949 62.2532 35.3422 62.5033 35.2429 62.7363C35.1448 62.971 35.0072 63.1873 34.8361 63.3756C34.655 63.5552 34.4403 63.6973 34.2043 63.7937C33.9682 63.8901 33.7154 63.939 33.4604 63.9375Z" fill="#2C3842"/>
<path d="M41.811 43.7489C41.5591 43.752 41.3091 43.706 41.0748 43.6133C40.8423 43.5131 40.6316 43.3683 40.4548 43.1871C40.2678 43.0152 40.1221 42.8032 40.0285 42.5671C39.9267 42.3281 39.874 42.0712 39.8735 41.8114C39.8808 41.3004 40.0897 40.8129 40.4548 40.4552C40.7298 40.1713 41.0851 39.9782 41.473 39.9021C41.8609 39.8259 42.2628 39.8701 42.6248 40.0289C42.8609 40.1225 43.0729 40.2682 43.2448 40.4552C43.6027 40.8161 43.8045 41.3032 43.8067 41.8114C43.8067 42.3253 43.6025 42.8181 43.2392 43.1815C42.8758 43.5448 42.383 43.7489 41.8692 43.7489H41.811Z" fill="#2C3842"/>
</svg>
