<svg width="124" height="124" viewBox="0 0 124 124" fill="none" xmlns="http://www.w3.org/2000/svg">
<path d="M61.8838 88.1562C76.3295 88.1562 88.04 76.4457 88.04 62C88.04 47.5543 76.3295 35.8438 61.8838 35.8438C47.4381 35.8438 35.7275 47.5543 35.7275 62C35.7275 76.4457 47.4381 88.1562 61.8838 88.1562Z" fill="#E17E44" fill-opacity="0.33"/>
<path d="M35.8438 63.9375C30.2873 63.9375 24.8557 62.2898 20.2357 59.2029C15.6157 56.1159 12.0149 51.7282 9.88852 46.5948C7.76217 41.4613 7.20582 35.8126 8.28983 30.3629C9.37383 24.9133 12.0495 19.9075 15.9785 15.9785C19.9075 12.0495 24.9133 9.37383 30.3629 8.28983C35.8126 7.20582 41.4613 7.76217 46.5948 9.88852C51.7282 12.0149 56.1159 15.6157 59.2029 20.2357C62.2898 24.8557 63.9375 30.2873 63.9375 35.8438C63.9324 43.2931 60.9709 50.4359 55.7034 55.7034C50.4359 60.9709 43.2931 63.9324 35.8438 63.9375ZM35.8438 11.625C31.0537 11.625 26.3713 13.0454 22.3885 15.7066C18.4058 18.3678 15.3016 22.1503 13.4686 26.5756C11.6355 31.001 11.1559 35.8706 12.0904 40.5686C13.0249 45.2666 15.3315 49.582 18.7185 52.969C22.1056 56.3561 26.4209 58.6627 31.1189 59.5972C35.8169 60.5316 40.6865 60.052 45.1119 58.219C49.5373 56.3859 53.3197 53.2817 55.9809 49.299C58.6421 45.3162 60.0625 40.6338 60.0625 35.8438C60.0523 29.4237 57.4974 23.2695 52.9577 18.7298C48.418 14.1902 42.2638 11.6353 35.8438 11.625Z" fill="#2C3842"/>
<path d="M52.3125 116.25H40.6875C36.0628 116.25 31.6275 114.413 28.3573 111.143C25.0872 107.873 23.25 103.437 23.25 98.8126V79.0308C23.25 78.5169 23.4541 78.0241 23.8175 77.6607C24.1808 77.2974 24.6736 77.0933 25.1875 77.0933C25.7014 77.0933 26.1942 77.2974 26.5575 77.6607C26.9209 78.0241 27.125 78.5169 27.125 79.0308V98.8126C27.125 102.41 28.5539 105.859 31.0974 108.403C33.6408 110.946 37.0905 112.375 40.6875 112.375H52.3125C52.8264 112.375 53.3192 112.579 53.6825 112.943C54.0459 113.306 54.25 113.799 54.25 114.313C54.25 114.826 54.0459 115.319 53.6825 115.683C53.3192 116.046 52.8264 116.25 52.3125 116.25Z" fill="#2C3842"/>
<path d="M35.9793 88.6019C35.723 88.6009 35.4694 88.5489 35.2333 88.4492C34.9971 88.3494 34.7831 88.2038 34.6037 88.0207L25.1875 78.6044L15.7712 88.0207C15.5911 88.2023 15.3768 88.3464 15.1407 88.4448C14.9046 88.5432 14.6514 88.5938 14.3956 88.5938C14.1398 88.5938 13.8866 88.5432 13.6505 88.4448C13.4144 88.3464 13.2001 88.2023 13.02 88.0207C12.6591 87.6577 12.4565 87.1666 12.4565 86.6547C12.4565 86.1429 12.6591 85.6518 13.02 85.2888L23.8118 74.4969C23.9919 74.3153 24.2062 74.1712 24.4423 74.0728C24.6784 73.9745 24.9317 73.9238 25.1875 73.9238C25.4432 73.9238 25.6965 73.9745 25.9326 74.0728C26.1687 74.1712 26.383 74.3153 26.5631 74.4969L37.355 85.2501C37.6282 85.5211 37.8146 85.8673 37.8902 86.2446C37.9659 86.6219 37.9276 87.0133 37.78 87.3687C37.6324 87.7241 37.3823 88.0275 37.0616 88.2403C36.7409 88.453 36.3642 88.5654 35.9793 88.5632V88.6019Z" fill="#2C3842"/>
<path d="M98.8125 46.9069C98.2986 46.9069 97.8058 46.7027 97.4425 46.3394C97.0791 45.976 96.875 45.4832 96.875 44.9694V25.1875C96.875 21.5905 95.4461 18.1408 92.9026 15.5974C90.3592 13.0539 86.9095 11.625 83.3125 11.625H71.6875C71.1736 11.625 70.6808 11.4209 70.3175 11.0575C69.9541 10.6942 69.75 10.2014 69.75 9.6875C69.75 9.17364 69.9541 8.68083 70.3175 8.31748C70.6808 7.95413 71.1736 7.75 71.6875 7.75H83.3125C87.9372 7.75 92.3725 9.58716 95.6427 12.8573C98.9128 16.1275 100.75 20.5628 100.75 25.1875V44.9694C100.75 45.4832 100.546 45.976 100.183 46.3394C99.8192 46.7027 99.3264 46.9069 98.8125 46.9069Z" fill="#2C3842"/>
<path d="M98.8125 50.065C98.5575 50.0665 98.3047 50.0176 98.0686 49.9212C97.8326 49.8247 97.6179 49.6827 97.4368 49.5031L86.645 38.75C86.2841 38.387 86.0815 37.8959 86.0815 37.384C86.0815 36.8722 86.2841 36.3811 86.645 36.0181C86.8251 35.8365 87.0394 35.6924 87.2755 35.594C87.5116 35.4956 87.7648 35.445 88.0206 35.445C88.2764 35.445 88.5296 35.4956 88.7657 35.594C89.0018 35.6924 89.2161 35.8365 89.3962 36.0181L98.8125 45.3956L108.229 35.9794C108.409 35.7978 108.623 35.6536 108.859 35.5553C109.095 35.4569 109.349 35.4062 109.604 35.4062C109.86 35.4062 110.113 35.4569 110.349 35.5553C110.586 35.6536 110.8 35.7978 110.98 35.9794C111.341 36.3424 111.543 36.8334 111.543 37.3453C111.543 37.8572 111.341 38.3482 110.98 38.7112L100.188 49.5031C100.007 49.6827 99.7923 49.8247 99.5563 49.9212C99.3202 50.0176 99.0674 50.0665 98.8125 50.065Z" fill="#2C3842"/>
<path d="M88.1563 116.25C82.5998 116.25 77.1682 114.602 72.5482 111.515C67.9282 108.428 64.3274 104.041 62.201 98.9073C60.0747 93.7738 59.5183 88.1251 60.6023 82.6754C61.6863 77.2258 64.362 72.22 68.291 68.291C72.22 64.362 77.2258 61.6863 82.6754 60.6023C88.1251 59.5183 93.7738 60.0747 98.9073 62.201C104.041 64.3274 108.428 67.9282 111.515 72.5482C114.602 77.1682 116.25 82.5998 116.25 88.1563C116.245 95.6056 113.283 102.748 108.016 108.016C102.748 113.283 95.6056 116.245 88.1563 116.25ZM88.1563 63.9375C83.3662 63.9375 78.6838 65.3579 74.701 68.0191C70.7183 70.6803 67.6141 74.4627 65.7811 78.8881C63.948 83.3135 63.4684 88.1831 64.4029 92.8811C65.3374 97.5791 67.644 101.894 71.031 105.282C74.4181 108.669 78.7334 110.975 83.4314 111.91C88.1294 112.844 92.999 112.365 97.4244 110.531C101.85 108.698 105.632 105.594 108.293 101.611C110.955 97.6287 112.375 92.9463 112.375 88.1563C112.365 81.7362 109.81 75.582 105.27 71.0423C100.731 66.5027 94.5763 63.9478 88.1563 63.9375Z" fill="#2C3842"/>
<path d="M88.0209 100.188C86.362 100.322 84.705 99.9074 83.3048 99.0077C81.9046 98.1081 80.8387 96.7735 80.2709 95.209C80.1735 94.9595 80.1288 94.6925 80.1398 94.4249C80.1508 94.1572 80.2171 93.8948 80.3347 93.6541C80.4522 93.4134 80.6184 93.1997 80.8227 93.0265C81.027 92.8533 81.265 92.7243 81.5216 92.6477C81.7783 92.5711 82.048 92.5485 82.3139 92.5815C82.5797 92.6144 82.8358 92.7021 83.066 92.839C83.2962 92.9759 83.4956 93.1591 83.6514 93.3769C83.8073 93.5947 83.9163 93.8425 83.9715 94.1046C84.3197 94.8546 84.8987 95.4735 85.6237 95.8709C86.3488 96.2683 87.182 96.4233 88.0015 96.3134C90.6946 96.3134 91.8765 94.7246 91.8765 93.659C91.8765 92.5934 91.8765 90.7915 87.4784 89.784C83.0803 88.7765 80.6778 86.4127 80.6778 83.0027C80.6778 79.5927 82.6153 76.1634 88.1953 76.1634C89.462 76.1217 90.7197 76.3913 91.8581 76.9487C92.9964 77.506 93.9807 78.3341 94.7246 79.3602C94.8857 79.568 95.0028 79.8064 95.0688 80.0609C95.1348 80.3154 95.1483 80.5807 95.1085 80.8406C95.0687 81.1005 94.9764 81.3495 94.8373 81.5726C94.6982 81.7957 94.5151 81.9881 94.2992 82.1382C94.0833 82.2882 93.8392 82.3928 93.5816 82.4455C93.324 82.4982 93.0584 82.4979 92.8009 82.4446C92.5435 82.3914 92.2995 82.2863 92.084 82.1358C91.8684 81.9852 91.6858 81.7924 91.5471 81.569C91.1594 81.0557 90.65 80.647 90.0648 80.3798C89.4796 80.1126 88.8371 79.9952 88.1953 80.0384C85.7153 80.0384 84.5528 80.9877 84.5528 83.0027C84.5528 83.6809 84.5528 85.0952 88.4278 86.0059C93.4653 87.2265 95.8096 89.6677 95.8096 93.7559C95.8484 96.8752 93.0003 100.188 88.0209 100.188Z" fill="#2C3842"/>
<path d="M88.292 79.9994C87.7781 79.9994 87.2853 79.7952 86.922 79.4319C86.5586 79.0685 86.3545 78.5757 86.3545 78.0619V75.5625C86.3545 75.0486 86.5586 74.5558 86.922 74.1925C87.2853 73.8291 87.7781 73.625 88.292 73.625C88.8058 73.625 89.2987 73.8291 89.662 74.1925C90.0254 74.5558 90.2295 75.0486 90.2295 75.5625V78.0037C90.2373 78.263 90.1929 78.5212 90.099 78.7631C90.0052 79.0049 89.8637 79.2254 89.683 79.4115C89.5023 79.5976 89.2861 79.7455 89.0471 79.8465C88.8082 79.9475 88.5514 79.9995 88.292 79.9994Z" fill="#2C3842"/>
<path d="M88.292 102.687C87.7781 102.687 87.2853 102.483 86.922 102.12C86.5586 101.757 86.3545 101.264 86.3545 100.75V98.2505C86.3545 97.7366 86.5586 97.2438 86.922 96.8805C87.2853 96.5171 87.7781 96.313 88.292 96.313C88.8058 96.313 89.2987 96.5171 89.662 96.8805C90.0254 97.2438 90.2295 97.7366 90.2295 98.2505V100.75C90.2295 101.264 90.0254 101.757 89.662 102.12C89.2987 102.483 88.8058 102.687 88.292 102.687Z" fill="#2C3842"/>
<path d="M33.2009 40.5127C35.4643 42.8341 39.1355 42.8341 41.3988 40.5127L43.9272 43.1049C43.0258 44.0299 41.9854 44.7272 40.8756 45.1963V47.3091H37.2995V45.9206C36.0832 45.9206 34.8668 45.6787 33.7241 45.1963V47.309H30.1486V42.5223C27.1868 38.9461 27.1868 33.6721 30.1486 30.0952V25.3091H33.7241V27.4219C34.8668 26.9388 36.0832 26.6976 37.2995 26.6976V25.3091H40.8756V27.4219C41.9854 27.8908 43.0257 28.5875 43.9272 29.5126L41.3988 32.1055C39.1354 29.784 35.4641 29.784 33.2009 32.1055C30.9365 34.4269 30.9365 38.1911 33.2009 40.5126V40.5127Z" fill="#2C3842"/>
</svg>
