<svg width="124" height="124" viewBox="0 0 124 124" fill="none" xmlns="http://www.w3.org/2000/svg">
<path d="M36.1562 107.312C50.6019 107.312 62.3125 95.6019 62.3125 81.1562C62.3125 66.7106 50.6019 55 36.1562 55C21.7106 55 10 66.7106 10 81.1562C10 95.6019 21.7106 107.312 36.1562 107.312Z" fill="#F5D4C1"/>
<path fill-rule="evenodd" clip-rule="evenodd" d="M42.7692 18C42.7692 17.4477 43.2169 17 43.7692 17H79.8462C80.3984 17 80.8462 17.4477 80.8462 18V22.0577C80.8462 22.61 80.3984 23.0577 79.8462 23.0577H43.7692C43.2169 23.0577 42.7692 22.61 42.7692 22.0577V18ZM96.6154 67.1923C96.6154 86.4161 81.0315 102 61.8077 102C42.5839 102 27 86.4161 27 67.1923C27 47.9685 42.5839 32.3846 61.8077 32.3846C81.0315 32.3846 96.6154 47.9685 96.6154 67.1923ZM101.615 67.1923C101.615 89.1775 83.7929 107 61.8077 107C39.8225 107 22 89.1775 22 67.1923C22 57.9147 25.1738 49.3784 30.4949 42.6099C30.7514 42.2836 30.7884 41.8341 30.5809 41.4747L27.6925 36.4718C27.4163 35.9935 27.5802 35.3819 28.0585 35.1058L33.0715 32.2115C33.5498 31.9354 34.1613 32.0993 34.4375 32.5776L36.0345 35.3436C36.3428 35.8777 37.0558 36.0074 37.5444 35.6312C44.2612 30.4598 52.6753 27.3846 61.8077 27.3846C70.6216 27.3846 78.7665 30.2491 85.3622 35.098C85.8516 35.4577 86.5498 35.3225 86.8535 34.7965L88.1346 32.5776C88.4108 32.0993 89.0223 31.9354 89.5006 32.2115L94.5136 35.1058C94.9919 35.3819 95.1558 35.9935 94.8796 36.4718L92.4267 40.7203C92.2148 41.0874 92.2583 41.5473 92.528 41.8743C98.2052 48.7549 101.615 57.5754 101.615 67.1923ZM65.2692 42.9615V65.4615H77.3846V72.3846L65.2692 72.3846H59.2115L59.2115 65.4615L59.2115 42.9615H65.2692Z" fill="black"/>
<path fill-rule="evenodd" clip-rule="evenodd" d="M42.7692 18C42.7692 17.4477 43.2169 17 43.7692 17H79.8462C80.3984 17 80.8462 17.4477 80.8462 18V22.0577C80.8462 22.61 80.3984 23.0577 79.8462 23.0577H43.7692C43.2169 23.0577 42.7692 22.61 42.7692 22.0577V18ZM96.6154 67.1923C96.6154 86.4161 81.0315 102 61.8077 102C42.5839 102 27 86.4161 27 67.1923C27 47.9685 42.5839 32.3846 61.8077 32.3846C81.0315 32.3846 96.6154 47.9685 96.6154 67.1923ZM101.615 67.1923C101.615 89.1775 83.7929 107 61.8077 107C39.8225 107 22 89.1775 22 67.1923C22 57.9147 25.1738 49.3784 30.4949 42.6099C30.7514 42.2836 30.7884 41.8341 30.5809 41.4747L27.6925 36.4718C27.4163 35.9935 27.5802 35.3819 28.0585 35.1058L33.0715 32.2115C33.5498 31.9354 34.1613 32.0993 34.4375 32.5776L36.0345 35.3436C36.3428 35.8777 37.0558 36.0074 37.5444 35.6312C44.2612 30.4598 52.6753 27.3846 61.8077 27.3846C70.6216 27.3846 78.7665 30.2491 85.3622 35.098C85.8516 35.4577 86.5498 35.3225 86.8535 34.7965L88.1346 32.5776C88.4108 32.0993 89.0223 31.9354 89.5006 32.2115L94.5136 35.1058C94.9919 35.3819 95.1558 35.9935 94.8796 36.4718L92.4267 40.7203C92.2148 41.0874 92.2583 41.5473 92.528 41.8743C98.2052 48.7549 101.615 57.5754 101.615 67.1923ZM65.2692 42.9615V65.4615H77.3846V72.3846L65.2692 72.3846H59.2115L59.2115 65.4615L59.2115 42.9615H65.2692Z" fill="black"/>
</svg>
