<svg width="124" height="124" viewBox="0 0 124 124" fill="none" xmlns="http://www.w3.org/2000/svg">
<path d="M97.1562 62.3125C111.602 62.3125 123.312 50.6019 123.312 36.1562C123.312 21.7106 111.602 10 97.1562 10C82.7106 10 71 21.7106 71 36.1562C71 50.6019 82.7106 62.3125 97.1562 62.3125Z" fill="#82FFF0"/>
<path fill-rule="evenodd" clip-rule="evenodd" d="M103 68C103 90.6437 84.6437 109 62 109C39.3563 109 21 90.6437 21 68C21 45.3563 39.3563 27 62 27C84.6437 27 103 45.3563 103 68ZM108 68C108 93.4051 87.4051 114 62 114C36.5949 114 16 93.4051 16 68C16 42.5949 36.5949 22 62 22C87.4051 22 108 42.5949 108 68ZM65.5 39.9602C65.5 38.8689 64.001 38.5667 63.5781 39.5728L51.5831 68.1125C51.3061 68.7716 51.7901 69.5 52.505 69.5H58.5C59.0523 69.5 59.5 69.9477 59.5 70.5V92.945C59.5 94.0404 61.0076 94.3387 61.4247 93.3258L72.9315 65.3807C73.2025 64.7226 72.7186 64 72.0068 64H66.5C65.9477 64 65.5 63.5523 65.5 63V39.9602Z" fill="black"/>
</svg>
