<svg xmlns="http://www.w3.org/2000/svg" data-name="Layer 1" width="263.81102" height="226.18305" viewBox="0 0 263.81102 226.18305" xmlns:xlink="http://www.w3.org/1999/xlink"><path d="M669.46266,431.24145c.53462-15.95351-14.074-28.64265-29.57049-28.39567-14.22526,1.07472-20.22241,4.91916-25.81783,9.92247-11.388,1.37372-22.33557,11.687-27.46893,21.65668-7.3088,13.462,2.31336,29.78513,15.985,34.23589,14.25237,4.19788,29.97572-.77833,41.49551-10.19481C657.83839,456.95415,668.78727,446.61049,669.46266,431.24145Z" transform="translate(-468.09449 -336.90848)" fill="#ffbb6b"/><path d="M704.21527,398.6892c-16.53351-25.74652-48.32147-40.71192-78.69089-36.09485a86.38877,86.38877,0,0,0-19.29426,6.50769c-8.81425.1274-17.61488.567-25.98158,3.55862-44.89829,13.28191-83.14358,50.936-82.31618,99.99021-1.35874,22.68926,8.15058,44.22,21.30389,62.23208,12.7392,18.24983,34.61233,27.59392,56.46069,28.1075,24.7111.95736,49.25239-4.96006,71.88842-14.61282,26.33492-11.11917,50.63509-30.18408,64.03-55.79152C723.86074,467.61752,718.12138,422.25027,704.21527,398.6892Zm-14.91106,78.346c-7.7669,18.27906-27.05953,35.73038-52.08905,47.15078,2.698-16.51164,1.74359-36.93718-7.85571-48.10137a57.03762,57.03762,0,0,0,4.90534-4.44563c9.97325-9.851,16.32429-23.84883,15.28141-38.00616-.52928-12.90012-9.03739-27.171-21.51205-29.14175-5.43808-.41606-10.88637,1.05595-15.97686,2.8504,5.06375-.22659,10.37592-.243,15.19689,1.49364,16.17611,9.827,12.3995,32.76912,1.10667,45.77042-5.96845,5.99661-11.86593,11.53427-20.16239,13.5114a35.414,35.414,0,0,0-5.48164.88086l-.03151.00085c-2.104-.17819-1.275-.05877-4.56819-1.20626-7.01313-1.69065-18.4986-20.87665-11.224-39.534,2.44434-6.79718,7.08426-13.12156,13.46652-16.66166,4.72773-2.37479,10.12543-2.47613,15.24542-3.3722-29.046-6.58582-47.49485,25.33591-41.19177,50.86044a36.15219,36.15219,0,0,0,10.86379,18.924c-16.03722,12.92444-23.94683,34.57225-30.26765,53.71427,13.06481-19.32786,24.89132-39.07587,42.07755-47.22633a32.33717,32.33717,0,0,0,21.05326-1.69093,12.49336,12.49336,0,0,1,4.91946,5.31874c4.68488,8.95641,8.5074,23.15609,9.77256,37.97244A148.26128,148.26128,0,0,1,596.40846,536.099c-20.82453,3.302-40.678-.94761-49.82836-8.67563-16.89593-15.05615-28.12305-40.4831-28.57087-56.51956-3.51826-28.55722,14.57411-66.46865,51.47885-86.36679,7.24351-4.14131,14.58227-8.37062,22.62891-10.74855,2.45026-.61862,4.92328-1.13412,7.40549-1.60693q-1.30731.61122-2.61272,1.2187-1.35936.66573-2.72005,1.3292a177.061,177.061,0,0,1,21.48591-5.13468c11.31287-1.96882,21.35272-.23781,31.9364,3.39106,21.69237,7.66768,39.14553,26.559,43.29778,43.85844,3.77327,15.45871,3.24533,17.041,2.817,32.90438C692.4276,465.61675,693.36588,464.70577,689.30421,477.03516Z" transform="translate(-468.09449 -336.90848)"/><circle cx="132.66142" cy="7.55906" r="7.55906"/><circle cx="7.55906" cy="157.98425" r="7.55906"/><circle cx="256.25197" cy="192.76121" r="7.55906"/></svg>