<svg xmlns="http://www.w3.org/2000/svg" data-name="Layer 1" width="501.02514" height="303.06973" viewBox="0 0 501.02514 303.06973" xmlns:xlink="http://www.w3.org/1999/xlink"><path d="M388.494,534.06312c7.72112-23.08677,36.66461-36.39055,59.21387-27.21745,26.59465,10.81879,56.91847-5.703,76.00528-27.15095s32.09179-48.14639,53.39242-67.39749S633.46168,383.5666,655.19,402.3337c22.60968,19.5284,57.24214,23.74354,83.876,10.2086s43.645-43.99464,41.19924-73.77c-38.999,39.37246-103.17471,51.14663-153.6104,28.18253-24.16617-11.00321-53.10241,3.23106-70.43465,23.34742s-27.33669,45.50755-43.11426,66.865S471.9011,496.59,445.89021,491.25077C419.87711,485.91109,391.78426,507.9095,388.494,534.06312Z" transform="translate(-349.48743 -298.46514)" fill="#ffbb6b"/><path d="M781.45435,572.21482c-25.96024.73646-51.81587,3.187-77.67921,5.40463-29.20706,2.09616-58.43962,3.86235-87.65751,5.80453,4.80343-31.48728,4.64964-63.38785,3.347-95.14105-.71554-14.96983-1.0233-29.95526-1.72728-44.92565-.32372-8.763-1.34079-17.49781-1.31565-26.27148-.027-.67792.18573-2.74435-.14626-.97009-2.03743,10.24936-2.44044,20.74151-3.60028,31.11125-1.50852,15.05939-2.68341,30.16246-2.46337,45.30866-.0268,16.23226,1.63478,32.39423,2.89317,48.56042,1.17416,14.09812,1.79372,28.23349,2.69406,42.349-3.7236.24775-7.44793.48761-11.1708.74252-25.36343,2.66873-50.65511,6.33838-76.19161,6.893l-.065.00036c.79133-10.66282,1.37639-21.36455.6603-32.04536-1.18553-15.10288-3.57532-27.53355-5.88729-43.89225-.15691-1.28317-.272-2.57147-.37218-3.85941,18.83236-9.50959,27.92389-30.038,37.60251-47.71807,8.19944-15.77291,18.44605-31.25825,29.18558-38.79464,13.48645-9.09062,28.57025-12.91112,41.8473-8.42078,12.08565,3.00623,23.62147,15.652,37.01689,23.76774,8.21964,5.00034,18.25079,6.98987,27.78993,6.95207,9.13906-.53881,17.23005-5.303,24.64385-10.30625a167.29666,167.29666,0,0,0,29.06593-25.32948c7.62394-8.22789,14.22952-17.35925,22.13717-25.32893,7.08733-6.69771,16.13353-12.433,25.95565-17.43982-.35786,13.41836-1.18369,26.82351-1.1224,40.2527.20958,19.92687-.1347,39.87392.82217,59.78427,2.26939,33.4357,2.64175,66.9417,3.8906,100.41906,4.16074-28.44435,7.78525-57.0803,7.33636-85.8827q-.49881-27.44857-2.80454-54.83622c-2.14314-18.70041-4.12092-37.41881-6.069-56.14013-.18113-1.44467-.38135-2.88713-.577-4.33032.99247-.49477,1.98274-.99174,2.98842-1.47219,4.29894-1.94347,9.43545-3.54008,14.38973-5.21947q1.24041-.41264,2.48412-.81372,2.18845-.71352,4.38353-1.40631-.75865.10709-1.51807.21527a130.71552,130.71552,0,0,0-23.24635,4.917q-.373-2.62615-.75574-5.2503-.04542,2.437-.09139,4.87445c-.00367.22426-.01119.44852-.01523.67278a87.3799,87.3799,0,0,0-12.41928,5.11945,88.87009,88.87009,0,0,0-18.23079,11.11318c-8.71128,7.45344-15.9467,16.42128-24.15588,24.39666-14.4312,14.02672-36.03249,33.201-50.74412,31.642a58.22024,58.22024,0,0,1-9.5907-1.79628c-1.76692-.49348-3.5388-.99082-5.25323-1.64543a91.1049,91.1049,0,0,1-13.16309-8.37306c-10.28936-7.60081-20.24858-16.51047-33.1885-19.04139-9.4505-2.463-19.40164-1.04917-28.56474,1.94457a65.891,65.891,0,0,0-31.265,21.19976c-19.1994,21.98962-29.43793,58.7661-48.5151,71.28834-18.6771,12.03151-31.80055,9.81386-54.76979,3.78012-11.37984-3.08642-23.01439-6.32-34.90166-5.9996-14.44588.76344-28.28928,6.63788-39.66837,15.43469-6.68267,4.84765-11.68393,11.49746-16.23557,18.29648-4.17579,6.09613-8.35746,12.19594-12.05683,18.59672,7.72321-9.15136,17.97752-21.28087,25.70918-27.87967,15.15794-11.00362,29.865-16.36568,47.19394-15.29961a67.55,67.55,0,0,1,7.5564,1.14332c-.94072,4.62486-.99063,9.45509-1.54394,14.13519-1.67168,22.50861-.49551,45.16128,1.41511,67.62971-11.97884-.71683-23.94189-1.7416-35.90477-2.66213-15.58884-1.56652-34.04168-2.56229-42.09028-5.91776-.17489-.09194-.32721-.21949-.49274-.32593-.3542-.35089-.73885-.76582-.96385-1.00293a6.61957,6.61957,0,0,1-.359-.66158,27.13361,27.13361,0,0,1-.59974-2.68819c-.58341-12.79238-.00551-25.62807-.31106-38.43476-.44541-22.72682-.88805-45.4518-.99486-68.1832-.15452-57.49689-5.60137-114.81943-13.0115-171.79347-.71976,27.85507-1.82418,55.71271-1.41824,83.581.35144,29.6686,2.37621,59.295,2.2749,88.97572-.01137,22.2192.61956,44.42923,1.10662,66.64127.60121,13.64465.13232,27.38086,1.69939,40.96017.637,5.58265,3.91189,11.02913,9.32277,13.077,7.40426,2.9,15.46772,3.44153,23.28618,4.48282,16.88229,1.76086,33.786,3.34335,50.73164,4.35949,17.93238,1.33731,35.9145,1.02129,53.87734.76289,17.837-.04771,35.67207-.42007,53.47341-1.60432,22.97457-1.18315,45.68157-5.24057,68.62879-6.71313,61.30949-3.67386,122.70322-7.13228,183.69083-14.62647,17.77473-2.36959,34.16922-4.84251,52.84614-5.89151C827.55287,570.11187,804.46287,571.49652,781.45435,572.21482ZM462.30077,590.89118c-5.23763-.14608-10.47031-.39768-15.7-.70361,2.06275-12.01315,3.80985-24.13018,4.04145-36.32613-.02385-15.19923-2.29674-30.352-4.17359-45.36866,14.21833,2.92364,32.92626,9.51234,48.61347,9.93132a54.217,54.217,0,0,0,14.18712-1.45439,72.10585,72.10585,0,0,0,12.363-5.08807c.385-.18113.74068-.39585,1.118-.586-.12993.74252-.25362,1.48614-.36006,2.23232-2.79977,25.92758,1.31308,51.91241,5.10109,77.55956C505.76506,591.36687,484.02613,591.07287,462.30077,590.89118Z" transform="translate(-349.48743 -298.46514)"/><path d="M710.04342,451.7575c-.29657-3.89886-.50266,3.27563-.69627,4.51971-.85153,11.1886-1.22554,22.40529-1.75114,33.61206-1.75224,27.8325-.5289,55.71418.43347,83.55145a306.10689,306.10689,0,0,0,6.64871-67.0641C714.53266,488.07776,712.33594,469.889,710.04342,451.7575Z" transform="translate(-349.48743 -298.46514)"/><path d="M440.25206,453.69381c-7.92655.19636-7.906,11.80908,0,12.0271C448.179,465.52455,448.15824,453.91183,440.25206,453.69381Z" transform="translate(-349.48743 -298.46514)"/><path d="M503.59715,436.41769c-7.92656.19655-7.90582,11.80927.00018,12.02711C511.52407,448.24843,511.50333,436.63571,503.59715,436.41769Z" transform="translate(-349.48743 -298.46514)"/><path d="M611.8009,365.646c-7.92655.19655-7.90581,11.80927.00019,12.0271C619.72782,377.4767,619.70709,365.864,611.8009,365.646Z" transform="translate(-349.48743 -298.46514)"/><path d="M706.709,383.68662c-7.92655.19655-7.90581,11.80926.00019,12.0271C714.63589,395.51736,714.61516,383.90464,706.709,383.68662Z" transform="translate(-349.48743 -298.46514)"/><path d="M792.80828,332.75872c-7.92656.19654-7.90582,11.80926.00018,12.0271C800.7352,344.58945,800.71446,332.97674,792.80828,332.75872Z" transform="translate(-349.48743 -298.46514)"/></svg>