<svg width="62" height="61" viewBox="0 0 62 61" fill="none" xmlns="http://www.w3.org/2000/svg">
<path d="M18 61C27.9411 61 36 52.9411 36 43C36 33.0589 27.9411 25 18 25C8.05888 25 0 33.0589 0 43C0 52.9411 8.05888 61 18 61Z" fill="#82FFF4"/>
<path d="M18.1875 42.7479C15.9755 40.5393 14.4682 37.7243 13.8563 34.6589C13.2444 31.5935 13.5554 28.4155 14.7499 25.5269C15.9445 22.6383 17.9689 20.1689 20.5671 18.431C23.1653 16.6931 26.2206 15.7649 29.3464 15.7637C32.4723 15.7624 35.5283 16.6883 38.1278 18.4242C40.7274 20.1601 42.7537 22.628 43.9505 25.5156C45.1472 28.4033 45.4607 31.5811 44.8512 34.6469C44.2416 37.7128 42.7365 40.529 40.5262 42.7393C37.5627 45.6982 33.5465 47.3609 29.3586 47.3625C25.1708 47.3641 21.1533 45.7046 18.1875 42.7479ZM38.7979 22.1376C36.9307 20.267 34.5507 18.9924 31.9589 18.475C29.367 17.9576 26.68 18.2207 24.2378 19.231C21.7955 20.2413 19.7079 21.9534 18.2391 24.1506C16.7702 26.3478 15.9862 28.9313 15.9862 31.5742C15.9862 34.2172 16.7702 36.8007 18.2391 38.9979C19.7079 41.1951 21.7955 42.9072 24.2378 43.9175C26.68 44.9278 29.367 45.1909 31.9589 44.6735C34.5507 44.1561 36.9307 42.8815 38.7979 41.0109C41.2947 38.505 42.6966 35.1117 42.6966 31.5742C42.6966 28.0368 41.2947 24.6435 38.7979 22.1376Z" fill="#2C3842"/>
<path d="M13.2358 47.6996C10.0445 44.5117 7.87024 40.4489 6.98815 36.0251C6.10604 31.6013 6.55571 27.0153 8.28026 22.8471C10.0048 18.6789 12.9268 15.1158 16.6766 12.6085C20.4264 10.1011 24.8356 8.76217 29.3464 8.76096C33.8573 8.75975 38.2672 10.0963 42.0183 12.6017C45.7695 15.107 48.6933 18.6686 50.4201 22.8358C52.1469 27.0031 52.5991 31.5889 51.7193 36.0131C50.8396 40.4373 48.6675 44.5013 45.4779 47.691C41.1995 51.9602 35.4027 54.3586 29.3586 54.3602C23.3146 54.3618 17.5165 51.9665 13.2358 47.6996ZM43.7495 17.1859C40.9031 14.336 37.2752 12.3944 33.325 11.6068C29.3748 10.8192 25.2798 11.221 21.5579 12.7613C17.8361 14.3017 14.6548 16.9113 12.4165 20.2601C10.1782 23.6089 8.98346 27.5463 8.98346 31.5743C8.98346 35.6022 10.1782 39.5397 12.4165 42.8885C14.6548 46.2372 17.8361 48.8469 21.5579 50.3872C25.2798 51.9275 29.3748 52.3293 33.325 51.5417C37.2752 50.7541 40.9031 48.8125 43.7496 45.9626C47.5596 42.1434 49.6993 36.969 49.6993 31.5743C49.6993 26.1796 47.5596 21.0051 43.7495 17.1859Z" fill="#2C3842"/>
<path d="M46.4982 32.4298C46.269 32.2006 46.1403 31.8898 46.1403 31.5657C46.1403 31.2415 46.269 30.9307 46.4982 30.7015C46.6143 30.5859 46.7524 30.4948 46.9044 30.4336C47.0514 30.37 47.2109 30.3405 47.371 30.3472C47.5719 30.3458 47.7701 30.394 47.948 30.4874C48.1258 30.5809 48.2779 30.7167 48.3907 30.883L48.4944 31.0904L48.5722 31.3237L48.5895 31.5657C48.5885 31.8885 48.4598 32.1979 48.2315 32.4262C48.0032 32.6545 47.6939 32.7832 47.371 32.7841L47.1291 32.7669L46.8957 32.6891L46.6883 32.5854L46.4982 32.4298Z" fill="#2C3842"/>
<path d="M41.2268 45.1677C41.1124 45.0547 41.0215 44.9201 40.9592 44.7718C40.8969 44.6235 40.8645 44.4644 40.8638 44.3036C40.863 44.225 40.8717 44.1467 40.8898 44.0702C40.9044 43.9874 40.9276 43.9063 40.9589 43.8283C40.9912 43.7592 41.0287 43.6928 41.0712 43.6295C41.12 43.5637 41.1783 43.5055 41.2441 43.4567C41.3551 43.343 41.4871 43.252 41.633 43.1888C41.7849 43.1307 41.9456 43.0986 42.1082 43.0937C42.4311 43.0947 42.7405 43.2234 42.9688 43.4517C43.1971 43.68 43.3258 43.9894 43.3267 44.3122C43.3274 44.4735 43.2961 44.6334 43.2347 44.7826C43.1732 44.9318 43.0829 45.0673 42.9688 45.1814C42.8547 45.2955 42.7192 45.3858 42.57 45.4473C42.4208 45.5087 42.2609 45.54 42.0996 45.5393C41.9367 45.5387 41.7756 45.5055 41.6257 45.4417C41.4758 45.3779 41.3402 45.2847 41.2268 45.1677Z" fill="#2C3842"/>
<path d="M28.4877 50.4388C28.3179 50.2673 28.2027 50.0495 28.1566 49.8126C28.1104 49.5758 28.1354 49.3306 28.2284 49.108C28.288 48.9598 28.3761 48.8247 28.4877 48.7105C28.6146 48.5782 28.7697 48.4762 28.9415 48.4121C29.1132 48.3479 29.2972 48.3233 29.4798 48.3398C29.6624 48.3564 29.8389 48.4139 29.9962 48.508C30.1536 48.6021 30.2878 48.7303 30.3888 48.8833L30.5012 49.082L30.5703 49.324L30.5962 49.5573C30.598 49.8017 30.5266 50.041 30.391 50.2444C30.2554 50.4477 30.062 50.6057 29.8358 50.698C29.6824 50.7512 29.5225 50.7832 29.3605 50.7931L29.1271 50.7672L28.8938 50.6894L28.6864 50.5857L28.4877 50.4388Z" fill="#2C3842"/>
<path d="M15.7687 45.1676C15.6543 45.0545 15.5633 44.92 15.5011 44.7717C15.4388 44.6234 15.4064 44.4643 15.4057 44.3035C15.3985 44.1397 15.4312 43.9766 15.5008 43.8282C15.6032 43.606 15.77 43.4197 15.9796 43.2933C16.1891 43.167 16.4317 43.1064 16.676 43.1195C16.9989 43.1205 17.3083 43.2492 17.5366 43.4775C17.7649 43.7058 17.8936 44.0152 17.8945 44.338C17.8896 44.5007 17.8575 44.6613 17.7995 44.8133C17.7417 44.9625 17.6535 45.0979 17.5404 45.211C17.4273 45.3241 17.2919 45.4124 17.1427 45.4701C16.9922 45.5332 16.8306 45.5655 16.6674 45.5651C16.4982 45.5647 16.331 45.5291 16.1763 45.4607C16.0216 45.3923 15.8828 45.2925 15.7687 45.1676Z" fill="#2C3842"/>
<path d="M10.4873 32.4384C10.2581 32.2092 10.1294 31.8984 10.1294 31.5742C10.1294 31.2501 10.2581 30.9393 10.4873 30.7101C10.5983 30.5963 10.7304 30.5053 10.8762 30.4422C11.0277 30.3825 11.1887 30.3503 11.3515 30.3471C11.5128 30.3464 11.6727 30.3777 11.8219 30.4392C11.9711 30.5006 12.1066 30.591 12.2207 30.7051C12.3348 30.8191 12.4251 30.9547 12.4866 31.1038C12.548 31.253 12.5793 31.4129 12.5786 31.5742C12.5775 31.7354 12.5422 31.8944 12.4749 32.0409C12.4153 32.189 12.3272 32.3241 12.2157 32.4384C11.9865 32.6676 11.6756 32.7963 11.3515 32.7963C11.0274 32.7963 10.7165 32.6676 10.4873 32.4384Z" fill="#2C3842"/>
<path d="M15.7691 19.7092C15.6547 19.5962 15.5638 19.4616 15.5015 19.3133C15.4392 19.165 15.4068 19.0059 15.4062 18.8451C15.4068 18.6842 15.4392 18.5251 15.5015 18.3768C15.5638 18.2285 15.6547 18.094 15.7691 17.9809C15.8822 17.8665 16.0167 17.7756 16.165 17.7133C16.3133 17.651 16.4724 17.6186 16.6333 17.618C16.8335 17.6189 17.0305 17.6691 17.2068 17.764C17.3831 17.859 17.5333 17.9957 17.6444 18.1624C17.6919 18.2287 17.7298 18.3014 17.7567 18.3784C17.7925 18.4488 17.8159 18.5248 17.8258 18.6031L17.8518 18.8364C17.8534 18.9981 17.8229 19.1585 17.7621 19.3083C17.7013 19.4582 17.6113 19.5944 17.4975 19.7092C17.3826 19.8231 17.2464 19.913 17.0966 19.9739C16.9467 20.0347 16.7863 20.0652 16.6246 20.0635C16.5462 20.0634 16.4679 20.0548 16.3913 20.0376C16.3117 20.0252 16.2336 20.0049 16.158 19.9771L15.9506 19.8561C15.8829 19.8168 15.8217 19.7673 15.7691 19.7092Z" fill="#2C3842"/>
<path d="M28.489 14.4377L28.3162 14.2649L28.2125 14.0575L28.1347 13.8242L28.1174 13.5822C28.1209 13.423 28.1501 13.2654 28.2038 13.1155C28.267 12.9697 28.358 12.8376 28.4717 12.7267C28.5848 12.6123 28.7193 12.5213 28.8676 12.4591C29.0159 12.3968 29.175 12.3644 29.3359 12.3637C29.4972 12.3631 29.6571 12.3943 29.8063 12.4558C29.9554 12.5172 30.091 12.6076 30.2051 12.7217C30.3191 12.8357 30.4095 12.9713 30.4709 13.1205C30.5324 13.2696 30.5637 13.4295 30.563 13.5908C30.5623 13.7517 30.5299 13.9108 30.4677 14.0591C30.4054 14.2074 30.3144 14.3419 30.2 14.455C29.9724 14.6807 29.6651 14.808 29.3445 14.8093C29.0214 14.8034 28.7138 14.6698 28.489 14.4377Z" fill="#2C3842"/>
<path d="M43.6616 20.2178C43.745 20.6632 43.7853 21.1138 43.7831 21.5633C44.8661 20.9311 46.105 20.5919 47.376 20.5928M43.6616 20.2178L47.376 20.5928M43.6616 20.2178H44.1277L42.8299 17.9682C42.1947 16.8671 41.281 15.9641 40.1915 15.3426C41.2801 14.7213 42.1932 13.8188 42.8281 12.7185C43.4641 11.6184 43.7895 10.3762 43.7836 9.12245C44.8663 9.75432 46.1046 10.0935 47.3752 10.0928C47.3749 10.0928 47.3746 10.0928 47.3743 10.0928L43.6616 20.2178ZM47.376 20.5928C48.6683 20.5929 49.9007 20.9412 50.9664 21.5633M47.376 20.5928C47.3757 20.5928 47.3753 20.5928 47.375 20.5928L50.9664 21.5633M50.9664 21.5633C50.9604 20.3095 51.2859 19.0672 51.9219 17.967C52.5568 16.8667 53.4699 15.9642 54.5585 15.3429C53.4694 14.7217 52.556 13.8191 51.9208 12.7185L50.9664 21.5633ZM36.5592 11.0278L35.3335 10.9634L35.0278 12.1521C34.7651 13.1735 34.625 14.2417 34.625 15.3428C34.625 16.4447 34.765 17.5126 35.0264 18.5314L35.3318 19.7217L36.559 19.6565C36.9044 19.6382 37.2482 19.7157 37.5523 19.8806C37.8564 20.0455 38.1089 20.2913 38.282 20.5909C38.455 20.8904 38.5418 21.232 38.5328 21.5778C38.5238 21.9236 38.4193 22.2602 38.2308 22.5503L37.5636 23.5775L38.4368 24.4366C39.9783 25.9533 41.8807 27.0526 43.9645 27.6309L45.1465 27.9589L45.7026 26.8655C45.8595 26.5571 46.0986 26.2981 46.3936 26.1172C46.6886 25.9363 47.0279 25.8406 47.3739 25.8406C47.7199 25.8406 48.0592 25.9363 48.3541 26.1172C48.6491 26.2981 48.8883 26.5571 49.0451 26.8655L49.6012 27.9589L50.7832 27.6309C52.8671 27.0526 54.7694 25.9533 56.311 24.4366L57.1838 23.5779L56.5172 22.5508C56.329 22.2607 56.2246 21.9242 56.2157 21.5785C56.2067 21.2328 56.2936 20.8913 56.4666 20.5919C56.6397 20.2925 56.8921 20.0467 57.1961 19.8819C57.5001 19.717 57.8438 19.6394 58.1891 19.6577L59.4153 19.7225L59.7211 18.5334C59.9838 17.512 60.1239 16.4438 60.1239 15.3428C60.1239 14.2418 59.9838 13.1734 59.721 12.1528L59.4148 10.9638L58.1888 11.029C57.8433 11.0473 57.4996 10.9698 57.1955 10.8049C56.8914 10.64 56.6388 10.3942 56.4658 10.0946C56.2927 9.79509 56.2059 9.45352 56.2149 9.10772C56.2239 8.76191 56.3285 8.42533 56.5169 8.13524L57.1842 7.10798L56.311 6.24887C54.7694 4.73217 52.8671 3.6329 50.7832 3.05462L49.6012 2.72662L49.0451 3.81998C48.8883 4.1284 48.6491 4.38739 48.3541 4.5683L49.1383 5.84697L48.3541 4.5683C48.0592 4.7492 47.7199 4.84495 47.3739 4.84495C47.0279 4.84495 46.6886 4.7492 46.3936 4.5683C46.0986 4.38739 45.8595 4.1284 45.7026 3.81998L45.1465 2.72662L43.9645 3.05462C41.8807 3.6329 39.9783 4.73217 38.4368 6.24887L37.5639 7.1076L38.2305 8.13469C38.4187 8.42474 38.5231 8.76118 38.532 9.10683C38.541 9.45248 38.4542 9.79388 38.2812 10.0933C38.1083 10.3927 37.8559 10.6384 37.552 10.8034L38.2675 12.1217L37.552 10.8034C37.2481 10.9683 36.9045 11.046 36.5592 11.0278ZM50.8221 18.7899L49.7615 17.7292L50.8221 18.7899C51.7364 17.8757 52.25 16.6357 52.25 15.3428C52.25 14.0498 51.7364 12.8098 50.8221 11.8956C49.9079 10.9814 48.6679 10.4678 47.375 10.4678C46.0821 10.4678 44.8421 10.9814 43.9279 11.8956C43.0136 12.8098 42.5 14.0498 42.5 15.3428C42.5 16.6357 43.0136 17.8757 43.9279 18.7899L44.9178 17.7999L43.9279 18.7899C44.8421 19.7041 46.0821 20.2178 47.375 20.2178C48.6679 20.2178 49.9079 19.7041 50.8221 18.7899ZM47.1098 15.0776C47.1802 15.0073 47.2755 14.9678 47.375 14.9678C47.4745 14.9678 47.5698 15.0073 47.6402 15.0776C47.7105 15.1479 47.75 15.2433 47.75 15.3428C47.75 15.4422 47.7105 15.5376 47.6402 15.6079C47.5698 15.6782 47.4745 15.7178 47.375 15.7178C47.2755 15.7178 47.1802 15.6782 47.1098 15.6079C47.0395 15.5376 47 15.4422 47 15.3428C47 15.2433 47.0395 15.1479 47.1098 15.0776Z" fill="#2C3842" stroke="white" stroke-width="3"/>
</svg>
