<svg width="98" height="39" viewBox="0 0 98 39" fill="none" xmlns="http://www.w3.org/2000/svg">
<path d="M14.6867 1.93064C17.9694 0.266282 21.8488 0.266285 25.1314 1.93064L35.1123 6.99107C37.6193 8.26215 39.1991 10.8344 39.1991 13.6452V24.9635C39.1991 27.7743 37.6193 30.3466 35.1123 31.6176L25.1314 36.6781C21.8488 38.3424 17.9694 38.3424 14.6867 36.6781L4.70587 31.6176C2.19888 30.3465 0.61908 27.7743 0.61908 24.9635V13.6452C0.61908 10.8344 2.19888 8.26215 4.70588 6.99106L14.6867 1.93064Z" fill="#00122E"/>
<path fill-rule="evenodd" clip-rule="evenodd" d="M14.5191 1.28833C17.9072 -0.429445 21.9111 -0.429442 25.2991 1.28833L35.6003 6.51117C38.1877 7.82305 39.8182 10.4778 39.8182 13.3789V25.0604C39.8182 27.9614 38.1877 30.6162 35.6003 31.9281L25.2991 37.151C21.9111 38.8687 17.9072 38.8687 14.5191 37.151L4.21796 31.9281C1.6305 30.6162 0 27.9614 0 25.0604V13.3789C0 10.4778 1.63051 7.82304 4.21796 6.51117L14.5191 1.28833ZM24.0589 3.73436C21.4504 2.41183 18.3678 2.41182 15.7593 3.73436L5.45813 8.9572C3.79224 9.80183 2.74246 11.5111 2.74246 13.3789V25.0604C2.74246 26.9282 3.79224 28.6375 5.45813 29.4821L15.7593 34.7049C18.3678 36.0275 21.4504 36.0275 24.0589 34.7049L34.3601 29.4821C36.026 28.6375 37.0758 26.9282 37.0758 25.0604V13.3789C37.0758 11.5111 36.026 9.80183 34.3601 8.9572L24.0589 3.73436Z" fill="url(#paint0_linear_2837_60443)"/>
<path d="M7.55331 25.7336C6.47523 25.1866 6.47523 23.6467 7.55331 23.0998L18.0001 17.7995C19.2 17.1907 20.6182 17.1907 21.8181 17.7995L32.2649 23.0998C33.343 23.6467 33.343 25.1866 32.2649 25.7336L21.8181 31.0339C20.6182 31.6426 19.2 31.6426 18.0001 31.0339L7.55331 25.7336Z" fill="url(#paint1_linear_2837_60443)"/>
<path d="M7.55331 20.4311C6.47523 19.8841 6.47523 18.3443 7.55331 17.7973L18.0001 12.497C19.2 11.8882 20.6182 11.8882 21.8181 12.497L32.2649 17.7973C33.343 18.3443 33.343 19.8841 32.2649 20.4311L21.8181 25.7314C20.6182 26.3402 19.2 26.3402 18.0001 25.7314L7.55331 20.4311Z" fill="url(#paint2_linear_2837_60443)"/>
<path fill-rule="evenodd" clip-rule="evenodd" d="M29.6348 21.7654L21.8179 25.7314C20.6181 26.3402 19.1998 26.3402 17.9999 25.7314L10.1831 21.7654L17.9999 17.7995C19.1998 17.1907 20.6181 17.1907 21.8179 17.7995L29.6348 21.7654Z" fill="#FFCD01"/>
<path d="M7.55324 15.1615C6.47516 14.6145 6.47516 13.0746 7.55324 12.5276L18 7.22734C19.1999 6.61857 20.6182 6.61857 21.818 7.22734L32.2648 12.5276C33.3429 13.0746 33.3429 14.6145 32.2648 15.1615L21.818 20.4618C20.6182 21.0705 19.1999 21.0705 18 20.4618L7.55324 15.1615Z" fill="#23273B"/>
<path fill-rule="evenodd" clip-rule="evenodd" d="M7.55343 12.5276L18.0002 7.22733C19.2001 6.61856 20.6184 6.61856 21.8182 7.22733L32.265 12.5276C33.3431 13.0746 33.3431 14.6145 32.265 15.1614L21.8182 20.4617C20.6184 21.0705 19.2001 21.0705 18.0002 20.4618L7.55343 15.1614C6.47535 14.6145 6.47535 13.0746 7.55343 12.5276ZM25.3739 13.8247L24.1943 13.2261C23.8943 13.074 23.5397 13.074 23.2398 13.2261L16.4526 16.6697C16.1526 16.8219 15.798 16.8219 15.4981 16.6697L9.96937 13.8647C9.81536 13.7865 9.81536 13.5665 9.96937 13.4884L19.176 8.8173C19.4695 8.66842 19.8155 8.66501 20.1119 8.80806L21.5434 9.49921C21.7006 9.57509 21.7029 9.79815 21.5473 9.87724L14.444 13.4883C14.2901 13.5665 14.2902 13.7864 14.4441 13.8645L15.4981 14.3992C15.798 14.5514 16.1526 14.5514 16.4526 14.3992L23.2398 10.9557C23.5397 10.8035 23.8943 10.8035 24.1943 10.9557L29.849 13.8247C30.003 13.9028 30.003 14.1228 29.849 14.2009L20.574 18.9067C20.2891 19.0512 19.9542 19.0589 19.663 18.9276L18.156 18.2478C17.9945 18.175 17.9893 17.9476 18.1473 17.8674L25.3739 14.2009C25.5279 14.1228 25.5279 13.9028 25.3739 13.8247Z" fill="#6EDEF0"/>
<path d="M49.2111 26.5556C48.1329 26.5556 47.3175 26.2524 46.7649 25.6459C46.2123 25.0259 45.936 24.1432 45.936 22.9976V22.1889H48.0385V23.1593C48.0385 24.0758 48.4226 24.534 49.1908 24.534C49.5682 24.534 49.8512 24.4262 50.0399 24.2106C50.2421 23.9814 50.3432 23.6175 50.3432 23.1189C50.3432 22.5259 50.2084 22.007 49.9388 21.5622C49.6693 21.104 49.1706 20.5582 48.4428 19.9247C47.5264 19.1161 46.8862 18.3883 46.5223 17.7414C46.1584 17.081 45.9765 16.3397 45.9765 15.5176C45.9765 14.399 46.2595 13.5364 46.8255 12.9299C47.3916 12.31 48.2137 12 49.2919 12C50.3566 12 51.1585 12.31 51.6976 12.9299C52.2502 13.5364 52.5265 14.4125 52.5265 15.558V16.1443H50.424V15.4165C50.424 14.9313 50.3297 14.5809 50.141 14.3653C49.9523 14.1362 49.676 14.0216 49.3121 14.0216C48.5709 14.0216 48.2002 14.4731 48.2002 15.3761C48.2002 15.8882 48.335 16.3667 48.6046 16.8114C48.8876 17.2562 49.393 17.7953 50.1208 18.4287C51.0507 19.2374 51.6909 19.9719 52.0413 20.6323C52.3917 21.2927 52.5669 22.0676 52.5669 22.9572C52.5669 24.1162 52.2772 25.0057 51.6976 25.6257C51.1316 26.2456 50.3027 26.5556 49.2111 26.5556Z" fill="white"/>
<path d="M57.1772 14.2238H54.8523V12.2022H61.7258V14.2238H59.4009V26.3535H57.1772V14.2238Z" fill="white"/>
<path d="M64.3991 12.2022H67.6943C68.8399 12.2022 69.6755 12.4717 70.2011 13.0108C70.7267 13.5364 70.9895 14.3518 70.9895 15.457V16.3263C70.9895 17.7953 70.5043 18.7252 69.534 19.1161V19.1565C70.0731 19.3182 70.4504 19.6484 70.6661 20.1471C70.8952 20.6458 71.0097 21.3129 71.0097 22.1485V24.6351C71.0097 25.0394 71.0232 25.3696 71.0502 25.6257C71.0771 25.8683 71.1445 26.1109 71.2523 26.3535H68.9881C68.9073 26.1244 68.8533 25.9087 68.8264 25.7066C68.7994 25.5044 68.786 25.1405 68.786 24.6149V22.0272C68.786 21.3803 68.6781 20.9288 68.4625 20.6727C68.2603 20.4167 67.9032 20.2886 67.391 20.2886H66.6228V26.3535H64.3991V12.2022ZM67.4315 18.267C67.8762 18.267 68.2064 18.1525 68.4221 17.9233C68.6512 17.6942 68.7657 17.3101 68.7657 16.771V15.6793C68.7657 15.1672 68.6714 14.7966 68.4827 14.5675C68.3075 14.3383 68.0245 14.2238 67.6336 14.2238H66.6228V18.267H67.4315Z" fill="white"/>
<path d="M75.8676 12.2022H78.8798L81.1845 26.3535H78.9607L78.5564 23.5434V23.5839H76.0293L75.625 26.3535H73.563L75.8676 12.2022ZM78.2935 21.6633L77.303 14.6685H77.2625L76.2921 21.6633H78.2935Z" fill="white"/>
<path d="M84.6706 14.2238H82.3458V12.2022H89.2193V14.2238H86.8944V26.3535H84.6706V14.2238Z" fill="white"/>
<path d="M92.683 12.2022H95.6952L97.9999 26.3535H95.7761L95.3718 23.5434V23.5839H92.8447L92.4404 26.3535H90.3784L92.683 12.2022ZM95.1089 21.6633L94.1184 14.6685H94.0779L93.1076 21.6633H95.1089Z" fill="white"/>
<defs>
<linearGradient id="paint0_linear_2837_60443" x1="16.4136" y1="2.27428e-07" x2="33.859" y2="35.1886" gradientUnits="userSpaceOnUse">
<stop stop-color="#F07733"/>
<stop offset="1" stop-color="#F07733"/>
</linearGradient>
<linearGradient id="paint1_linear_2837_60443" x1="19.9091" y1="21.5586" x2="19.9091" y2="28.0924" gradientUnits="userSpaceOnUse">
<stop stop-color="white" stop-opacity="0.58"/>
<stop offset="1" stop-color="white"/>
</linearGradient>
<linearGradient id="paint2_linear_2837_60443" x1="19.9091" y1="14.1006" x2="19.9091" y2="23.0223" gradientUnits="userSpaceOnUse">
<stop stop-color="#FECC50" stop-opacity="0.57"/>
<stop offset="1" stop-color="#FECC50"/>
</linearGradient>
</defs>
</svg>
